
<svg width="28" height="27" fill="none" xmlns="http://www.w3.org/2000/svg"><path fill-rule="evenodd" clip-rule="evenodd" d="M12.31 19.891c4.39 0 7.95-3.633 7.95-8.116 0-4.482-3.56-8.116-7.95-8.116-4.39 0-7.949 3.634-7.949 8.116 0 4.483 3.56 8.116 7.95 8.116Zm0 2.865c5.94 0 10.755-4.916 10.755-10.98C23.066 5.71 18.25.793 12.312.793 6.37.794 1.556 5.71 1.556 11.775c0 6.065 4.815 10.98 10.755 10.98Z" fill="#378FD7" stroke="#378FD7" stroke-width=".3"/><path fill-rule="evenodd" clip-rule="evenodd" d="M18.375 17.967a1.247 1.247 0 0 1 1.79 0l5.909 6.034a1.311 1.311 0 0 1 0 1.827 1.247 1.247 0 0 1-1.79 0l-5.909-6.034a1.311 1.311 0 0 1 0-1.827Z" fill="#378FD7" stroke="#378FD7" stroke-width=".3" stroke-linecap="round"/></svg>