<svg width="20" height="22" fill="none" xmlns="http://www.w3.org/2000/svg"><path fill-rule="evenodd" clip-rule="evenodd" d="M8.672 15.971c3.45 0 6.246-2.826 6.246-6.313 0-3.486-2.796-6.312-6.246-6.312-3.449 0-6.245 2.826-6.245 6.312 0 3.487 2.796 6.313 6.245 6.313Zm0 2.228c4.667 0 8.45-3.824 8.45-8.54 0-4.718-3.783-8.541-8.45-8.541S.222 4.94.222 9.658c0 4.717 3.783 8.541 8.45 8.541Z" fill="#1C243E" stroke="#1C243E" stroke-width=".3"/><path fill-rule="evenodd" clip-rule="evenodd" d="M13.438 14.475a.987.987 0 0 1 1.406 0l4.643 4.692a1.012 1.012 0 0 1 0 1.421.987.987 0 0 1-1.406 0l-4.643-4.693a1.012 1.012 0 0 1 0-1.42Z" fill="#1C243E" stroke="#1C243E" stroke-width=".3" stroke-linecap="round"/></svg>