
<svg width="34" height="41" fill="none" xmlns="http://www.w3.org/2000/svg"><path d="M31.77 5.208 30.212 3.03a1.264 1.264 0 0 0-1.775-.285l-2.295 1.693-.39-.528a1.295 1.295 0 0 0-.822-.528 1.344 1.344 0 0 0-.952.22l-13.269 9.742-.151-.242a1.103 1.103 0 0 0-.758-.483 1.215 1.215 0 0 0-.865.198l-1.364.99a1.177 1.177 0 0 0-.26 1.627l5.671 8.027c.173.263.455.417.758.461h.195c.238 0 .476-.066.67-.22l1.364-.99c.52-.373.628-1.12.26-1.627l-.238-.33 5.995-4.398a3.83 3.83 0 0 0 2.793 1.188c.151 0 .303 0 .454-.022v9.522c0 .594-.476 1.056-1.039 1.056H7.787a1.048 1.048 0 0 1-1.039-1.056v-1.87h3.117c.693 0 .715-1.12 0-1.12H2.528c-.693 0-.715 1.12 0 1.12h3.117v1.87c0 1.188.952 2.177 2.142 2.177h3.658v3.937h-1.97c-1.19 0-2.424-.088-3.614 0-1.017.066-1.19.88-1.19 1.737v1.627c0 .44-.065.968.194 1.342.563.836 2.316.528 3.16.528h18.312c1.256-.198.996-1.65.996-2.595 0-.946.238-2.397-.996-2.595-.995-.154-2.1 0-3.095 0h-3.268v-3.937h4.242c1.169 0 2.143-.967 2.143-2.177v-9.83a3.955 3.955 0 0 0 2.23-4.288 3.452 3.452 0 0 0-.39-1.122l1.103-.814a1.21 1.21 0 0 0 .498-.835 1.4 1.4 0 0 0-.216-.968l-.39-.528 2.295-1.693a1.311 1.311 0 0 0 .281-1.803ZM12.55 29.244h6.298v3.937h-6.299v-3.937Zm7.553 5.036h5.368c.303 0 .65-.11.78.154.151.33 0 1.144 0 1.518 0 .264.151 1.187-.152 1.341H6.532c-.152 0-.606.088-.736-.044s-.022-.836-.022-1.012v-1.56c0-.463.087-.397.498-.397h13.831Zm-4.762-12.447-1.363.99h-.043s-.022 0-.044-.022l-5.67-8.027v-.088l1.363-.99h.086l.174.242 5.281 7.433.238.33v.088l-.021.044Zm9.935-5.41a2.764 2.764 0 0 1-2.748-1.121 2.678 2.678 0 0 1-.477-1.144c-.28-1.517.736-2.99 2.23-3.277.065 0 .151-.022.216-.022H25.103c.087 0 .173.022.26.044h.043c.087.022.174.044.282.088h.065c.086.044.173.066.26.11 0 0 .021 0 .043.022.086.044.151.088.238.132.086.044.151.11.238.176l.043.044.195.198.043.044c.065.066.13.154.195.242.238.352.411.726.476 1.143.282 1.518-.736 2.991-2.23 3.277l.022.044Zm3.442-6.421s0 .088-.065.11l-1.104.813-.173-.176c-.021 0-.043-.043-.065-.066-.043-.043-.086-.066-.13-.11-.021 0-.065-.043-.086-.065-.044-.022-.087-.066-.13-.088-.022 0-.065-.044-.087-.066-.043-.022-.086-.044-.13-.088-.021 0-.065-.044-.086-.066l-.13-.066a.163.163 0 0 1-.087-.044 1.048 1.048 0 0 0-.151-.066.162.162 0 0 1-.087-.044 1.476 1.476 0 0 1-.216-.088h-.065a2.688 2.688 0 0 0-.217-.066h-.086a.396.396 0 0 1-.152-.044h-1.147c-.086 0-.173 0-.26.044-2.1.396-3.484 2.44-3.116 4.552 0 .088.043.176.064.264v.066c0 .066.044.132.065.198 0 .022 0 .044.022.066.022.088.065.176.087.242v.022c.021.066.065.154.108.22v.022l-5.974 4.398-4.005-5.63L24.65 4.482s.108-.044.13-.022c.021 0 .065 0 .108.066l3.81 5.344s.043.088.021.132Zm2.121-3.893-2.294 1.694-1.753-2.485 2.294-1.694s.195-.044.238.044l1.559 2.177s.043.198-.044.242v.022Z" fill="#fff" stroke="#fff"/></svg>