
<svg width="36" height="34" fill="none" xmlns="http://www.w3.org/2000/svg"><g clip-path="url(#a)" stroke="#fff" stroke-width="2.5" stroke-linecap="round" stroke-linejoin="round"><path d="M16.492 23.98A6.979 6.979 0 0 0 23.469 17a6.979 6.979 0 0 0-6.977-6.98A6.979 6.979 0 0 0 9.515 17a6.979 6.979 0 0 0 6.977 6.98Z"/><path d="M31.148 20.735c-1.663 6.545-7.591 11.39-14.656 11.39-8.351 0-15.118-6.77-15.118-15.125S8.141 1.875 16.492 1.875c7.074 0 13.011 4.858 14.665 11.426"/><path d="M16.492 17h16.305l1.828-3.703H28.61L26.04 17l2.57 3.735h6.015L32.797 17"/></g><defs><clipPath id="a"><path fill="#fff" transform="translate(0 .5)" d="M0 0h36v33H0z"/></clipPath></defs></svg>