
<svg width="34" height="36" fill="none" xmlns="http://www.w3.org/2000/svg"><g clip-path="url(#a)"><path d="M29.276 18c0-1-.136-1.965-.368-2.894l3.728-2.684-2.928-5.007-4.214 1.848a12.313 12.313 0 0 0-5.078-2.898l-.486-4.523h-5.856l-.486 4.523A12.264 12.264 0 0 0 8.51 9.263L4.296 7.415l-2.928 5.007 3.728 2.684A11.912 11.912 0 0 0 4.728 18c0 1 .136 1.965.368 2.894l-3.728 2.683 2.928 5.008 4.214-1.844a12.312 12.312 0 0 0 5.078 2.899l.486 4.523h5.856l.486-4.523a12.263 12.263 0 0 0 5.078-2.9l4.214 1.845 2.928-5.008-3.728-2.683A11.91 11.91 0 0 0 29.276 18Zm-12.274 5.703c-3.191 0-5.778-2.553-5.778-5.703 0-3.15 2.587-5.703 5.778-5.703 3.191 0 5.778 2.553 5.778 5.703 0 3.15-2.587 5.703-5.778 5.703Z" stroke="#fff" stroke-width="2.5" stroke-linecap="round" stroke-linejoin="round"/></g><defs><clipPath id="a"><path fill="#fff" transform="translate(0 .5)" d="M0 0h34v35H0z"/></clipPath></defs></svg>