<svg width="50" height="50" fill="none" xmlns="http://www.w3.org/2000/svg"><g clip-path="url(#a)"><rect width="50" height="50" rx="25" fill="#E6ECF5"/><path d="m15.567 29.546-2.272-2.792 5.887-3.615.669 4.58-4.284 1.827Z" fill="url(#b)"/><path d="m31.736 30.41-6.444 6.295c-.483.409-.928.334-1.232-.207l-3.854-9.125-5.642 2.405 3.801 12.295h13.639l5.256-6.258-5.516-5.405h-.008Z" fill="url(#c)"/><path d="m29.979 20.377 3.348 5.257s4.67.126 5.813-5.59l-5.353-6.46-3.808 6.793Z" fill="url(#d)"/><path d="m32.087 25.328 6.377-6.95 1.619 1.716-7.617 8.092-.38-2.858Z" fill="url(#e)"/><path d="m31.515 28.857 8.947-9.43s6.162 3.624 9.413 9.786c2.83 5.368 1.93 8.642 1.93 37.552H28.465v-24.44c0-8.197 3.044-13.476 3.044-13.476l.007.008Z" fill="url(#f)"/><path d="M20.703 45.301v-2.68H1.26v2.68h19.444Z" fill="#fff"/><path d="M6.551 34.73v3.327c0 .92.364 1.811 1.018 2.464l2.182 2.183 2.383-2.383-2.034-2.034a1.333 1.333 0 0 1-.386-.936v-2.62h-3.17.007Z" fill="url(#g)"/><path d="M7.59 37.485V34.73H6.545v3.327c0 .928.364 1.811 1.017 2.464l2.183 2.183.705-.705-1.752-1.752c-.69-.69-1.121-1.233-1.121-2.755l.015-.007Z" fill="url(#h)"/><path d="m23.21 17.684-1.49-1.49-1.67 1.669 1.491 1.49 1.67-1.669Z" fill="url(#i)"/><path d="m22.349 19.538-2.478-2.477-1.465 1.464 2.478 2.478 1.465-1.465ZM13.334 28.544l-2.478-2.478-1.538 1.539 2.478 2.477 1.538-1.538Z" fill="#111B63"/><path d="m22.087 20.613-3.28-3.281-9.146 9.145 3.281 3.281 9.145-9.145Z" fill="#fff"/><path d="m22.083 20.611-1.632-1.633-9.145 9.146 1.632 1.632 9.145-9.145Z" fill="url(#j)"/><path d="m20.008 26.097-2.71-2.71a1.403 1.403 0 0 0-1.975 0 1.403 1.403 0 0 0 0 1.975l2.294 2.294c.26.26.408.616.408.987v3.089a1.4 1.4 0 0 1-.408.987l-2.168 2.168a1.555 1.555 0 0 0-.17 1.997 1.558 1.558 0 0 0 2.368.2l2.36-2.36a2.888 2.888 0 0 0 .847-2.042v-4.536c0-.765-.304-1.5-.846-2.042v-.007Z" fill="url(#k)"/><path d="M15.278 36.876a1.546 1.546 0 0 1 .171-1.997l2.168-2.168a1.4 1.4 0 0 0 .408-.987v-3.089a1.4 1.4 0 0 0-.408-.987l-2.294-2.294a1.403 1.403 0 0 1 0-1.975l3.319 3.319c.52.52.764 1.024.764 2.145v2.977c0 .928-.111 1.27-.854 2.012-.742.743-3.266 3.044-3.266 3.044h-.008Z" fill="url(#l)"/><path d="M18.542 44.263H8.475L14.34 32.6a1.216 1.216 0 0 1 1.084-.668h2.272c.468 0 .839.378.839.839v11.492h.007Z" fill="url(#m)"/><path d="M11.35 32.791H4.83v1.797h6.519V32.79Z" fill="#111B63"/><path d="M10.755 33.342h-5.33v1.797h5.33v-1.797Z" fill="#111B63"/><path d="M12.171 32.115H4.012v.891h8.16v-.89Z" fill="#fff"/><path d="M16.335 35.584a1.255 1.255 0 1 0 0-2.51 1.255 1.255 0 0 0 0 2.51Z" fill="url(#n)"/><path d="M16.334 35.027a1.158 1.158 0 1 0 0-2.316 1.158 1.158 0 0 0 0 2.316Z" fill="url(#o)"/><path d="M16.336 34.463a.594.594 0 1 0 0-1.188.594.594 0 0 0 0 1.188Z" fill="#1D2875"/><path d="M16.39 25.249a.757.757 0 1 0 0-1.515.757.757 0 0 0 0 1.515Z" fill="url(#p)"/><path d="M16.394 24.878a.386.386 0 1 0 0-.773.386.386 0 0 0 0 .773Z" fill="#1D2875"/><mask id="q" style="mask-type:luminance" maskUnits="userSpaceOnUse" x="3" y="40" width="13" height="6"><path d="m14.776 41.357-1.492.223s-3.282-1.418-4.173-1.418c-.89 0-3.8.965-4.84 1.344-1.04.379-.594 1.566.37 1.344-1.12.668-.519 1.492.298 1.343-.653.32-.817 1.196.445 1.196h9.689l-.297-4.024v-.008Z" fill="#fff"/></mask><g mask="url(#q)"><path d="m14.787 41.357-1.493.223s-3.281-1.418-4.172-1.418c-.89 0-3.801.965-4.84 1.344-1.04.379-.595 1.566.37 1.344-1.12.668-.52 1.492.298 1.343-.654.32-.817 1.196.445 1.196h9.689l-.297-4.024v-.008Z" fill="#FFD9CC"/><g style="mix-blend-mode:multiply"><path opacity=".4" d="M8.298 41.936s-2.569.654-3.92 1.04l-.958.118-.17-.69s3.875-1.002 5.048-.468Z" fill="#fff"/><path opacity=".45" d="M8.137 41.966s-2.458.616-3.727.987l-.936.126-.163-.645s3.682-.958 4.826-.468Z" fill="#FEFAF9"/><path opacity=".51" d="M7.962 42.003s-2.346.587-3.527.936l-.913.133-.163-.601s3.49-.913 4.61-.468h-.007Z" fill="#FDF5F3"/><path opacity=".56" d="M7.787 42.04s-2.235.557-3.333.884l-.899.134-.156-.55s3.304-.861 4.388-.468Z" fill="#FCF0ED"/><path opacity=".62" d="M7.62 42.078s-2.124.52-3.14.839l-.877.14-.156-.504s3.111-.817 4.165-.475h.008Z" fill="#FBEBE7"/><path opacity=".67" d="M7.451 42.115s-2.012.49-2.94.787l-.854.148-.148-.46s2.918-.772 3.95-.475H7.45Z" fill="#FAE6E1"/><path opacity=".73" d="M7.29 42.145s-1.9.46-2.747.735l-.831.155-.149-.415s2.725-.72 3.727-.475Z" fill="#F9E1DA"/><path opacity=".78" d="M7.116 42.182s-1.79.423-2.554.683l-.81.163-.14-.371s2.531-.676 3.504-.475Z" fill="#F8DCD4"/><path opacity=".84" d="M6.947 42.218s-1.678.393-2.353.638l-.787.171-.141-.326s2.346-.624 3.288-.483h-.007Z" fill="#F7D7CE"/><path opacity=".89" d="M6.773 42.255s-1.567.364-2.16.587l-.773.17-.133-.274s2.153-.58 3.066-.483Z" fill="#F6D2C8"/><path opacity=".95" d="M6.605 42.293s-1.455.326-1.967.534l-.75.178-.134-.23s1.96-.534 2.844-.482h.007Z" fill="#F5CDC2"/><path d="M6.444 42.324s-1.344.297-1.767.483l-.727.185-.134-.185s1.767-.483 2.628-.483Z" fill="#F4C8BC"/></g><g style="mix-blend-mode:multiply"><path opacity=".4" d="M8.563 43.296s-2.57.653-3.92 1.039l-.958.119-.17-.69s3.875-1.003 5.048-.468Z" fill="#fff"/><path opacity=".45" d="M8.388 43.333s-2.458.616-3.727.987l-.936.127-.163-.646s3.682-.958 4.826-.468Z" fill="#FEFAF9"/><path opacity=".51" d="M8.227 43.363s-2.346.586-3.527.935l-.913.134-.163-.602s3.489-.913 4.61-.467h-.007Z" fill="#FDF5F3"/><path opacity=".56" d="M8.045 43.4s-2.235.557-3.334.883l-.898.134-.156-.55s3.304-.86 4.388-.467Z" fill="#FCF0ED"/><path opacity=".62" d="M7.884 43.437s-2.123.52-3.14.839l-.876.141-.156-.505s3.11-.816 4.165-.475h.007Z" fill="#FBEBE7"/><path opacity=".67" d="M7.716 43.472s-2.012.49-2.94.787l-.854.149-.149-.46s2.918-.773 3.95-.476h-.007Z" fill="#FAE6E1"/><path opacity=".73" d="M7.548 43.51s-1.9.46-2.747.735l-.831.156-.149-.416s2.725-.72 3.727-.475Z" fill="#F9E1DA"/><path opacity=".78" d="M7.373 43.541s-1.789.423-2.554.683l-.809.163-.14-.37s2.53-.676 3.503-.476Z" fill="#F8DCD4"/><path opacity=".84" d="M7.205 43.577s-1.678.394-2.354.639l-.787.17-.14-.326s2.345-.624 3.288-.483h-.007Z" fill="#F7D7CE"/><path opacity=".89" d="M7.03 43.614s-1.566.364-2.16.587l-.772.17-.134-.274s2.153-.58 3.067-.483Z" fill="#F6D2C8"/><path opacity=".95" d="M6.863 43.652s-1.455.327-1.967.535l-.75.178-.134-.23s1.96-.535 2.844-.483h.007Z" fill="#F5CDC2"/><path d="M6.695 43.69s-1.344.296-1.767.482l-.727.186-.134-.186s1.767-.482 2.628-.482Z" fill="#F4C8BC"/></g></g><path d="m16.919 40.336-2.963.223v5.308h3.126l-.163-5.531Z" fill="url(#r)"/><path d="M42.834 23.621c-3.244-1.232-6.155.846-8.16 5.702-1.306 3.17-2.405 5.375-3.05 6.6-.765 1.455-2.161 2.54-3.794 2.725h-.037l-12.288 1.284v6.541l16.37-.483c.246 0 .498-.022.743-.052 2.65-.282 4.73-2.071 6.407-4.135 1.678-2.064 3.55-4.7 5.376-8.464 2.301-4.744 1.908-8.404-1.567-9.725v.007Z" fill="#fff"/><path d="M-2.072 60.187A6.996 6.996 0 0 0 4.92 67.18h25.577V48.96h-32.57v11.227Z" fill="#111B63"/><path d="M-2.072 60.187A6.996 6.996 0 0 0 4.92 67.18h25.577V48.96h-32.57v11.227Z" fill="url(#s)"/><mask id="t" style="mask-type:luminance" maskUnits="userSpaceOnUse" x="22" y="9" width="4" height="8"><path d="M24.734 9.121c-1.893-.119-2.836 1.15-2.68 3.088.149 1.782 1.515 3.668 2.792 4.195l1.076-4.655-1.195-2.62.007-.008Z" fill="#fff"/></mask><g mask="url(#t)"><path d="M24.738 9.121c-1.893-.119-2.836 1.15-2.68 3.088.149 1.782 1.515 3.668 2.792 4.195l1.076-4.655-1.195-2.62.007-.008Z" fill="#683427"/><g style="mix-blend-mode:multiply"><path opacity=".4" d="M21.456 11.015c.35.565 1.092.654 1.27.045.215-.757.876-1.834 1.745-1.878l.482 2.487-1.002 3.578-1.44.216-1.27-2.094.215-2.361v.007Z" fill="#fff"/><path opacity=".45" d="M21.471 11.105c.364.631 1.092.706 1.285.067.23-.765.846-1.804 1.73-1.863l.467 2.36-1.002 3.579-1.44.215-1.27-2.093.238-2.265h-.008Z" fill="#F6F3F2"/><path opacity=".51" d="M21.487 11.193c.378.698 1.091.765 1.307.09.244-.773.824-1.783 1.707-1.85l.445 2.228-1.002 3.578-1.44.216-1.27-2.094.253-2.175v.007Z" fill="#EDE7E5"/><path opacity=".56" d="M21.502 11.291c.393.758 1.091.817 1.329.119.252-.772.801-1.752 1.685-1.834l.43 2.094-1.002 3.578-1.44.216-1.27-2.094.268-2.086v.007Z" fill="#E5DBD8"/><path opacity=".62" d="M21.523 11.38c.416.823 1.1.868 1.344.14.267-.779.78-1.722 1.67-1.811l.416 1.967-1.002 3.579-1.44.215-1.27-2.093.282-1.99v-.008Z" fill="#DCCFCB"/><path opacity=".67" d="M21.538 11.47c.43.883 1.099.92 1.366.163.268-.758.758-1.693 1.648-1.797l.401 1.834-1.002 3.578-1.44.216-1.27-2.094.297-1.9Z" fill="#D3C3BE"/><path opacity=".73" d="M21.553 11.567c.445.95 1.099.973 1.388.185.29-.786.728-1.67 1.626-1.781l.386 1.7-1.002 3.578-1.44.216-1.27-2.094.312-1.812v.008Z" fill="#CAB6B0"/><path opacity=".78" d="M21.568 11.655c.46 1.01 1.099 1.024 1.403.208.305-.817.705-1.641 1.611-1.767l.371 1.574-1.002 3.578-1.44.216-1.27-2.094.327-1.723v.008Z" fill="#C1AAA3"/><path opacity=".84" d="M21.583 11.743c.475 1.077 1.091 1.084 1.425.238.334-.847.683-1.611 1.589-1.752l.356 1.44-1.002 3.578-1.44.216-1.27-2.094.35-1.626h-.008Z" fill="#B89E96"/><path opacity=".89" d="M21.598 11.83c.49 1.137 1.091 1.137 1.448.26.327-.816.66-1.58 1.566-1.736l.335 1.306-1.003 3.579-1.44.215-1.27-2.094.364-1.537v.008Z" fill="#B09289"/><path opacity=".95" d="M21.613 11.929c.505 1.202 1.091 1.188 1.463.282.334-.824.638-1.56 1.551-1.723l.32 1.18-1.003 3.58-1.44.215-1.27-2.094.379-1.448v.008Z" fill="#A7867C"/><path d="M21.635 12.019c.527 1.27 1.091 1.24 1.485.304.348-.831.608-1.53 1.529-1.7l.304 1.047-1.002 3.578-1.44.216-1.27-2.094.394-1.351Z" fill="#9E7A6F"/></g></g><path d="M23.54 12.003c-.594 1.9 1.047 4.47.409 6.593-.49 1.633-.223 1.79 1.158 1.492.965 2.383 3.222 4.47 6.132 2.339 2.45-1.79 4.01-5.954 3.059-9.058-1.745-5.71-9.169-6.43-10.758-1.373v.007Z" fill="#FFD9CC"/><mask id="u" style="mask-type:luminance" maskUnits="userSpaceOnUse" x="23" y="5" width="13" height="11"><path d="M24.98 7.23c-1.7 1.514-1.855 4.499-.319 5.182 2.562 1.136 3-1.685 5.769-1.307 1.923.26 3.497 1.574 4.276 4.195 0 0 1.285-3.319-.178-6.548-1.53-3.4-6.348-4.373-9.547-1.522Z" fill="#fff"/></mask><g mask="url(#u)"><path d="M24.97 7.232c-1.7 1.514-1.857 4.499-.32 5.182 2.562 1.136 3-1.685 5.769-1.307 1.923.26 3.497 1.574 4.276 4.195 0 0 1.285-3.319-.178-6.548-1.53-3.4-6.348-4.373-9.548-1.522Z" fill="#683427"/><g style="mix-blend-mode:multiply"><path opacity=".4" d="M27.053 5.34c-1.878 1.789-1.091 3.318-.742 3.623 1.002.876 1.789-.208 3.103-.179 1.7.045 2.049.61 3.452-.133s-.787-2.792-.787-2.792l3.623 2.012.609 5.153-3.103 1.35s-.438-2.36-3.623-1.922c-3.185.438-2.792 2.012-5.546.742-2.755-1.27-1.485-5.241-1.485-5.241l4.499-2.621v.007Z" fill="#fff"/><path opacity=".45" d="M26.77 5.548c-1.759 1.775-1.083 3.349-.578 3.698 1.143.802 1.811-.297 3.259-.268 1.797.038 2.13.654 3.526-.089 1.396-.742-.69-2.85-.69-2.85l3.415 1.833.609 5.153-3.103 1.35s-.438-2.36-3.623-1.922c-3.185.438-2.792 2.012-5.546.742-2.755-1.27-1.485-5.241-1.485-5.241L26.77 5.54v.007Z" fill="#F6F3F2"/><path opacity=".51" d="M26.496 5.762c-1.64 1.76-1.076 3.378-.416 3.779 1.263.757 1.834-.386 3.408-.364 1.893.03 2.205.698 3.6-.045 1.397-.742-.593-2.903-.593-2.903l3.207 1.649.609 5.152-3.103 1.351s-.438-2.36-3.623-1.923c-3.185.438-2.792 2.012-5.546.743-2.755-1.27-1.485-5.242-1.485-5.242l3.942-2.197Z" fill="#EDE7E5"/><path opacity=".56" d="M26.221 5.97c-1.522 1.745-1.076 3.415-.252 3.854 1.366.727 1.863-.476 3.564-.46 1.99.021 2.279.742 3.675 0C34.603 8.62 32.71 6.4 32.71 6.4l2.992 1.47.609 5.152-3.103 1.352s-.438-2.361-3.623-1.923c-3.185.438-2.792 2.012-5.546.742-2.755-1.27-1.485-5.241-1.485-5.241l3.667-1.99v.007Z" fill="#E5DBD8"/><path opacity=".62" d="M25.933 6.18c-1.403 1.73-1.084 3.452-.089 3.927 1.47.698 1.886-.564 3.72-.557 2.086.015 2.353.787 3.749.044 1.396-.742-.409-3.014-.409-3.014l2.785 1.292.608 5.152-3.103 1.352s-.438-2.361-3.623-1.923c-3.185.438-2.792 2.012-5.546.742-2.754-1.27-1.485-5.241-1.485-5.241l3.386-1.782.007.007Z" fill="#DCCFCB"/><path opacity=".67" d="M25.657 6.394c-1.284 1.708-1.091 3.504.074 4.002 1.574.683 1.909-.654 3.876-.654 2.183 0 2.428.832 3.83.09 1.404-.743-.311-3.074-.311-3.074l2.576 1.114.609 5.152-3.103 1.351s-.438-2.36-3.623-1.923c-3.185.438-2.792 2.012-5.546.743-2.755-1.27-1.485-5.242-1.485-5.242l3.11-1.566-.007.007Z" fill="#D3C3BE"/><path opacity=".73" d="M25.383 6.601c-1.166 1.693-1.1 3.549.237 4.076 1.67.66 1.93-.735 4.031-.75 2.272 0 2.502.876 3.906.134 1.403-.743-.216-3.126-.216-3.126l2.361.936.609 5.152-3.103 1.351s-.438-2.36-3.623-1.923c-3.185.438-2.792 2.012-5.546.743-2.755-1.27-1.485-5.242-1.485-5.242l2.829-1.358V6.6Z" fill="#CAB6B0"/><path opacity=".78" d="M25.108 6.81c-1.047 1.678-1.106 3.6.393 4.15 1.775.654 1.96-.824 4.188-.839 2.368-.014 2.583.921 3.979.179 1.396-.743-.119-3.185-.119-3.185l2.153.757.609 5.152-3.103 1.352s-.438-2.361-3.623-1.923c-3.185.438-2.792 2.012-5.546.742-2.755-1.27-1.485-5.242-1.485-5.242l2.554-1.15v.007Z" fill="#C1AAA3"/><path opacity=".84" d="M24.826 7.023c-.928 1.663-1.114 3.66.556 4.232 1.879.639 1.983-.913 4.344-.935 2.465-.023 2.658.958 4.053.215 1.396-.742-.022-3.237-.022-3.237l1.945.58.609 5.152-3.103 1.35s-.438-2.36-3.623-1.922c-3.185.438-2.792 2.012-5.546.742-2.755-1.27-1.485-5.241-1.485-5.241l2.272-.936Z" fill="#B89E96"/><path opacity=".89" d="M24.545 7.234c-.81 1.648-1.121 3.72.72 4.306 1.975.631 2.004-1.002 4.492-1.032 2.56-.03 2.732 1.002 4.128.26 1.395-.743.074-3.296.074-3.296l1.73.4.608 5.153-3.103 1.351s-.438-2.36-3.623-1.923c-3.185.438-2.792 2.012-5.546.743-2.754-1.27-1.485-5.242-1.485-5.242l1.997-.727.008.007Z" fill="#B09289"/><path opacity=".95" d="M24.27 7.44c-.69 1.632-1.128 3.778.884 4.38 2.012.6 2.026-1.092 4.647-1.13 2.658-.036 2.807 1.048 4.202.305 1.396-.742.164-3.348.164-3.348l1.522.223.608 5.152-3.103 1.351s-.438-2.36-3.623-1.922c-3.185.438-2.792 2.011-5.546.742-2.754-1.27-1.485-5.242-1.485-5.242l1.723-.52.007.008Z" fill="#A7867C"/><path d="M23.988 7.656c-.564 1.618-1.136 3.846 1.047 4.454 2.183.61 2.05-1.18 4.804-1.225 2.754-.044 2.88 1.092 4.276.35 1.396-.743.26-3.408.26-3.408l1.307.044.608 5.153-3.103 1.35s-.438-2.36-3.623-1.922c-3.185.438-2.791 2.012-5.546.742-2.754-1.27-1.485-5.241-1.485-5.241l1.44-.305.015.008Z" fill="#9E7A6F"/></g></g><path d="M33.441 13.132c.282-2.042 2.302-1.574 2.874-.104.608 1.574-.09 3.363-1.767 3.282l-1.107-3.17v-.008Z" fill="url(#v)"/><g style="mix-blend-mode:multiply"><path opacity=".4" d="M34.894 12.59c-.46.787-.764 1.396-.63 2.405l.37 1.047c1.33-.55 1.493-2.784.26-3.452Z" fill="#fff"/><path opacity=".45" d="M34.882 12.64c-.453.78-.735 1.374-.616 2.354l.348.98c1.21-.497 1.381-2.62.26-3.333h.008Z" fill="#FEFAF9"/><path opacity=".51" d="M34.872 12.693c-.446.765-.706 1.352-.594 2.31l.334.92c1.091-.446 1.277-2.457.26-3.222v-.008Z" fill="#FDF5F3"/><path opacity=".56" d="M34.864 12.744c-.438.757-.683 1.33-.572 2.257l.312.854c.965-.394 1.166-2.294.26-3.11Z" fill="#FCF0ED"/><path opacity=".62" d="M34.859 12.799c-.438.75-.654 1.3-.557 2.212l.29.787c.846-.349 1.054-2.13.26-3h.007Z" fill="#FBEBE7"/><path opacity=".67" d="M34.849 12.857c-.43.735-.624 1.277-.535 2.16l.275.72c.727-.296.943-1.967.26-2.887v.007Z" fill="#FAE6E1"/><path opacity=".73" d="M34.839 12.908c-.423.728-.594 1.255-.512 2.116l.252.654c.609-.246.839-1.805.26-2.77Z" fill="#F9E1DA"/><path opacity=".78" d="M34.829 12.96c-.416.721-.572 1.233-.498 2.072l.23.587c.483-.2.728-1.64.26-2.658h.008Z" fill="#F8DCD4"/><path opacity=".84" d="M34.812 13.014c-.408.705-.542 1.21-.475 2.02l.215.526c.364-.148.616-1.477.26-2.546Z" fill="#F7D7CE"/><path opacity=".89" d="M34.81 13.066c-.41.698-.513 1.18-.454 1.975l.193.46c.245-.096.513-1.313.26-2.435Z" fill="#F6D2C8"/><path opacity=".95" d="M34.8 13.123c-.402.69-.49 1.158-.439 1.923l.17.393c.12-.052.402-1.15.26-2.316h.008Z" fill="#F5CDC2"/><path d="M34.782 13.176c-.393.675-.46 1.136-.415 1.878l.155.327s.29-.988.26-2.205Z" fill="#F4C8BC"/></g><path style="mix-blend-mode:multiply" d="M28.938 20.54a3.497 3.497 0 1 0 0-6.993 3.497 3.497 0 0 0 0 6.994Z" fill="url(#w)"/><path d="M24.617 10.22c1.225 1.307 2.799.379 4.232-.022 1.136-.327 2.643-.416 3.563.527.32.275.52.639.728.973l-.03.022c-.475-.616-1.084-1.173-1.849-1.351-2.13-.639-5.107 2.168-6.637-.149h-.007Z" fill="#1F130F" style="mix-blend-mode:screen"/><path d="M26.33 8.943c1.292.75 2.665.193 4.068.126 1.582-.148 3.066.728 3.408 2.331l-.037.015c-.535-1.38-1.893-2.168-3.356-1.982-1.307.022-3.118.557-4.09-.497l.007.007ZM27.213 6.99c1.574-1.07 4.061-.943 5.345.527-1.522-.988-3.652-1.07-5.345-.527Z" fill="#1F130F" style="mix-blend-mode:screen"/><path d="M25.856 16.82c.218-.037.354-.312.303-.616-.05-.303-.268-.52-.487-.483-.218.037-.354.312-.303.615.05.304.268.52.487.484ZM24.71 14.861c.208-.593 1.203-.69 1.463-.118-.638-.104-.98.052-1.463.118Z" fill="#683427"/><g style="mix-blend-mode:multiply" opacity=".3"><path d="m15.567 29.546-2.272-2.792 5.887-3.615.669 4.58-4.284 1.827Z" fill="url(#x)"/><path d="m31.736 30.41-6.444 6.295c-.483.409-.928.334-1.232-.207l-3.854-9.125-5.642 2.405 3.801 12.295h13.639l5.256-6.258-5.516-5.405h-.008Z" fill="url(#y)"/><path d="m29.979 20.377 3.348 5.257s4.67.126 5.813-5.59l-5.353-6.46-3.808 6.793Z" fill="url(#z)"/><path d="m32.087 25.328 6.377-6.95 1.619 1.716-7.617 8.092-.38-2.858Z" fill="url(#A)"/><path d="m31.515 28.857 8.947-9.43s6.162 3.624 9.413 9.786c2.83 5.368 1.93 8.642 1.93 37.552H28.465v-24.44c0-8.197 3.044-13.476 3.044-13.476l.007.008Z" fill="url(#B)"/><path d="M20.703 45.301v-2.68H1.26v2.68h19.444Z" fill="#fff"/><path d="M6.551 34.73v3.327c0 .92.364 1.811 1.018 2.464l2.182 2.183 2.383-2.383-2.034-2.034a1.333 1.333 0 0 1-.386-.936v-2.62h-3.17.007Z" fill="url(#C)"/><path d="M7.59 37.485V34.73H6.545v3.327c0 .928.364 1.811 1.017 2.464l2.183 2.183.705-.705-1.752-1.752c-.69-.69-1.121-1.233-1.121-2.755l.015-.007Z" fill="url(#D)"/><path d="m23.21 17.684-1.49-1.49-1.67 1.669 1.491 1.49 1.67-1.669Z" fill="url(#E)"/><path d="m22.349 19.538-2.478-2.477-1.465 1.464 2.478 2.478 1.465-1.465ZM13.334 28.544l-2.478-2.478-1.538 1.539 2.478 2.477 1.538-1.538Z" fill="#111B63"/><path d="m22.087 20.613-3.28-3.281-9.146 9.145 3.281 3.281 9.145-9.145Z" fill="#fff"/><path d="m22.083 20.611-1.632-1.633-9.145 9.146 1.632 1.632 9.145-9.145Z" fill="url(#F)"/><path d="m20.008 26.097-2.71-2.71a1.403 1.403 0 0 0-1.975 0 1.403 1.403 0 0 0 0 1.975l2.294 2.294c.26.26.408.616.408.987v3.089a1.4 1.4 0 0 1-.408.987l-2.168 2.168a1.555 1.555 0 0 0-.17 1.997 1.558 1.558 0 0 0 2.368.2l2.36-2.36a2.888 2.888 0 0 0 .847-2.042v-4.536c0-.765-.304-1.5-.846-2.042v-.007Z" fill="url(#G)"/><path d="M15.278 36.876a1.546 1.546 0 0 1 .171-1.997l2.168-2.168a1.4 1.4 0 0 0 .408-.987v-3.089a1.4 1.4 0 0 0-.408-.987l-2.294-2.294a1.403 1.403 0 0 1 0-1.975l3.319 3.319c.52.52.764 1.024.764 2.145v2.977c0 .928-.111 1.27-.854 2.012-.742.743-3.266 3.044-3.266 3.044h-.008Z" fill="url(#H)"/><path d="M18.542 44.263H8.475L14.34 32.6a1.216 1.216 0 0 1 1.084-.668h2.272c.468 0 .839.378.839.839v11.492h.007Z" fill="url(#I)"/><path d="M11.35 32.791H4.83v1.797h6.519V32.79Z" fill="#111B63"/><path d="M10.755 33.342h-5.33v1.797h5.33v-1.797Z" fill="#111B63"/><path d="M12.171 32.115H4.012v.891h8.16v-.89Z" fill="#fff"/><path d="M16.335 35.584a1.255 1.255 0 1 0 0-2.51 1.255 1.255 0 0 0 0 2.51Z" fill="url(#J)"/><path d="M16.334 35.027a1.158 1.158 0 1 0 0-2.316 1.158 1.158 0 0 0 0 2.316Z" fill="url(#K)"/><path d="M16.336 34.463a.594.594 0 1 0 0-1.188.594.594 0 0 0 0 1.188Z" fill="#1D2875"/><path d="M16.39 25.249a.757.757 0 1 0 0-1.515.757.757 0 0 0 0 1.515Z" fill="url(#L)"/><path d="M16.394 24.878a.386.386 0 1 0 0-.773.386.386 0 0 0 0 .773Z" fill="#1D2875"/><mask id="M" style="mask-type:luminance" maskUnits="userSpaceOnUse" x="3" y="40" width="13" height="6"><path d="m14.776 41.357-1.492.223s-3.282-1.418-4.173-1.418c-.89 0-3.8.965-4.84 1.344-1.04.379-.594 1.566.37 1.344-1.12.668-.519 1.492.298 1.343-.653.32-.817 1.196.445 1.196h9.689l-.297-4.024v-.008Z" fill="#fff"/></mask><g mask="url(#M)"><path d="m14.787 41.357-1.493.223s-3.281-1.418-4.172-1.418c-.89 0-3.801.965-4.84 1.344-1.04.379-.595 1.566.37 1.344-1.12.668-.52 1.492.298 1.343-.654.32-.817 1.196.445 1.196h9.689l-.297-4.024v-.008Z" fill="#FFD9CC"/><g style="mix-blend-mode:multiply"><path opacity=".4" d="M8.298 41.936s-2.569.654-3.92 1.04l-.958.118-.17-.69s3.875-1.002 5.048-.468Z" fill="#fff"/><path opacity=".45" d="M8.137 41.966s-2.458.616-3.727.987l-.936.126-.163-.645s3.682-.958 4.826-.468Z" fill="#FEFAF9"/><path opacity=".51" d="M7.962 42.003s-2.346.587-3.527.936l-.913.133-.163-.601s3.49-.913 4.61-.468h-.007Z" fill="#FDF5F3"/><path opacity=".56" d="M7.787 42.04s-2.235.557-3.333.884l-.899.134-.156-.55s3.304-.861 4.388-.468Z" fill="#FCF0ED"/><path opacity=".62" d="M7.62 42.078s-2.124.52-3.14.839l-.877.14-.156-.504s3.111-.817 4.165-.475h.008Z" fill="#FBEBE7"/><path opacity=".67" d="M7.451 42.115s-2.012.49-2.94.787l-.854.148-.148-.46s2.918-.772 3.95-.475H7.45Z" fill="#FAE6E1"/><path opacity=".73" d="M7.29 42.145s-1.9.46-2.747.735l-.831.155-.149-.415s2.725-.72 3.727-.475Z" fill="#F9E1DA"/><path opacity=".78" d="M7.116 42.182s-1.79.423-2.554.683l-.81.163-.14-.371s2.531-.676 3.504-.475Z" fill="#F8DCD4"/><path opacity=".84" d="M6.947 42.218s-1.678.393-2.353.638l-.787.171-.141-.326s2.346-.624 3.288-.483h-.007Z" fill="#F7D7CE"/><path opacity=".89" d="M6.773 42.255s-1.567.364-2.16.587l-.773.17-.133-.274s2.153-.58 3.066-.483Z" fill="#F6D2C8"/><path opacity=".95" d="M6.605 42.293s-1.455.326-1.967.534l-.75.178-.134-.23s1.96-.534 2.844-.482h.007Z" fill="#F5CDC2"/><path d="M6.444 42.324s-1.344.297-1.767.483l-.727.185-.134-.185s1.767-.483 2.628-.483Z" fill="#F4C8BC"/></g><g style="mix-blend-mode:multiply"><path opacity=".4" d="M8.563 43.296s-2.57.653-3.92 1.039l-.958.119-.17-.69s3.875-1.003 5.048-.468Z" fill="#fff"/><path opacity=".45" d="M8.388 43.333s-2.458.616-3.727.987l-.936.127-.163-.646s3.682-.958 4.826-.468Z" fill="#FEFAF9"/><path opacity=".51" d="M8.227 43.363s-2.346.586-3.527.935l-.913.134-.163-.602s3.489-.913 4.61-.467h-.007Z" fill="#FDF5F3"/><path opacity=".56" d="M8.045 43.4s-2.235.557-3.334.883l-.898.134-.156-.55s3.304-.86 4.388-.467Z" fill="#FCF0ED"/><path opacity=".62" d="M7.884 43.437s-2.123.52-3.14.839l-.876.141-.156-.505s3.11-.816 4.165-.475h.007Z" fill="#FBEBE7"/><path opacity=".67" d="M7.716 43.472s-2.012.49-2.94.787l-.854.149-.149-.46s2.918-.773 3.95-.476h-.007Z" fill="#FAE6E1"/><path opacity=".73" d="M7.548 43.51s-1.9.46-2.747.735l-.831.156-.149-.416s2.725-.72 3.727-.475Z" fill="#F9E1DA"/><path opacity=".78" d="M7.373 43.541s-1.789.423-2.554.683l-.809.163-.14-.37s2.53-.676 3.503-.476Z" fill="#F8DCD4"/><path opacity=".84" d="M7.205 43.577s-1.678.394-2.354.639l-.787.17-.14-.326s2.345-.624 3.288-.483h-.007Z" fill="#F7D7CE"/><path opacity=".89" d="M7.03 43.614s-1.566.364-2.16.587l-.772.17-.134-.274s2.153-.58 3.067-.483Z" fill="#F6D2C8"/><path opacity=".95" d="M6.863 43.652s-1.455.327-1.967.535l-.75.178-.134-.23s1.96-.535 2.844-.483h.007Z" fill="#F5CDC2"/><path d="M6.695 43.69s-1.344.296-1.767.482l-.727.186-.134-.186s1.767-.482 2.628-.482Z" fill="#F4C8BC"/></g></g><path d="m16.919 40.336-2.963.223v5.308h3.126l-.163-5.531Z" fill="url(#N)"/><path d="M42.834 23.621c-3.244-1.232-6.155.846-8.16 5.702-1.306 3.17-2.405 5.375-3.05 6.6-.765 1.455-2.161 2.54-3.794 2.725h-.037l-12.288 1.284v6.541l16.37-.483c.246 0 .498-.022.743-.052 2.65-.282 4.73-2.071 6.407-4.135 1.678-2.064 3.55-4.7 5.376-8.464 2.301-4.744 1.908-8.404-1.567-9.725v.007Z" fill="#fff"/><path d="M-2.072 60.187A6.996 6.996 0 0 0 4.92 67.18h25.577V48.96h-32.57v11.227Z" fill="#111B63"/><path d="M-2.072 60.187A6.996 6.996 0 0 0 4.92 67.18h25.577V48.96h-32.57v11.227Z" fill="url(#O)"/><mask id="P" style="mask-type:luminance" maskUnits="userSpaceOnUse" x="22" y="9" width="4" height="8"><path d="M24.734 9.121c-1.893-.119-2.836 1.15-2.68 3.088.149 1.782 1.515 3.668 2.792 4.195l1.076-4.655-1.195-2.62.007-.008Z" fill="#fff"/></mask><g mask="url(#P)"><path d="M24.738 9.121c-1.893-.119-2.836 1.15-2.68 3.088.149 1.782 1.515 3.668 2.792 4.195l1.076-4.655-1.195-2.62.007-.008Z" fill="#683427"/><g style="mix-blend-mode:multiply"><path opacity=".4" d="M21.456 11.015c.35.565 1.092.654 1.27.045.215-.757.876-1.834 1.745-1.878l.482 2.487-1.002 3.578-1.44.216-1.27-2.094.215-2.361v.007Z" fill="#fff"/><path opacity=".45" d="M21.471 11.105c.364.631 1.092.706 1.285.067.23-.765.846-1.804 1.73-1.863l.467 2.36-1.002 3.579-1.44.215-1.27-2.093.238-2.265h-.008Z" fill="#F6F3F2"/><path opacity=".51" d="M21.487 11.193c.378.698 1.091.765 1.307.09.244-.773.824-1.783 1.707-1.85l.445 2.228-1.002 3.578-1.44.216-1.27-2.094.253-2.175v.007Z" fill="#EDE7E5"/><path opacity=".56" d="M21.502 11.291c.393.758 1.091.817 1.329.119.252-.772.801-1.752 1.685-1.834l.43 2.094-1.002 3.578-1.44.216-1.27-2.094.268-2.086v.007Z" fill="#E5DBD8"/><path opacity=".62" d="M21.523 11.38c.416.823 1.1.868 1.344.14.267-.779.78-1.722 1.67-1.811l.416 1.967-1.002 3.579-1.44.215-1.27-2.093.282-1.99v-.008Z" fill="#DCCFCB"/><path opacity=".67" d="M21.538 11.47c.43.883 1.099.92 1.366.163.268-.758.758-1.693 1.648-1.797l.401 1.834-1.002 3.578-1.44.216-1.27-2.094.297-1.9Z" fill="#D3C3BE"/><path opacity=".73" d="M21.553 11.567c.445.95 1.099.973 1.388.185.29-.786.728-1.67 1.626-1.781l.386 1.7-1.002 3.578-1.44.216-1.27-2.094.312-1.812v.008Z" fill="#CAB6B0"/><path opacity=".78" d="M21.568 11.655c.46 1.01 1.099 1.024 1.403.208.305-.817.705-1.641 1.611-1.767l.371 1.574-1.002 3.578-1.44.216-1.27-2.094.327-1.723v.008Z" fill="#C1AAA3"/><path opacity=".84" d="M21.583 11.743c.475 1.077 1.091 1.084 1.425.238.334-.847.683-1.611 1.589-1.752l.356 1.44-1.002 3.578-1.44.216-1.27-2.094.35-1.626h-.008Z" fill="#B89E96"/><path opacity=".89" d="M21.598 11.83c.49 1.137 1.091 1.137 1.448.26.327-.816.66-1.58 1.566-1.736l.335 1.306-1.003 3.579-1.44.215-1.27-2.094.364-1.537v.008Z" fill="#B09289"/><path opacity=".95" d="M21.613 11.929c.505 1.202 1.091 1.188 1.463.282.334-.824.638-1.56 1.551-1.723l.32 1.18-1.003 3.58-1.44.215-1.27-2.094.379-1.448v.008Z" fill="#A7867C"/><path d="M21.635 12.019c.527 1.27 1.091 1.24 1.485.304.348-.831.608-1.53 1.529-1.7l.304 1.047-1.002 3.578-1.44.216-1.27-2.094.394-1.351Z" fill="#9E7A6F"/></g></g><path d="M23.54 12.003c-.594 1.9 1.047 4.47.409 6.593-.49 1.633-.223 1.79 1.158 1.492.965 2.383 3.222 4.47 6.132 2.339 2.45-1.79 4.01-5.954 3.059-9.058-1.745-5.71-9.169-6.43-10.758-1.373v.007Z" fill="#FFD9CC"/><mask id="Q" style="mask-type:luminance" maskUnits="userSpaceOnUse" x="23" y="5" width="13" height="11"><path d="M24.98 7.23c-1.7 1.514-1.855 4.499-.319 5.182 2.562 1.136 3-1.685 5.769-1.307 1.923.26 3.497 1.574 4.276 4.195 0 0 1.285-3.319-.178-6.548-1.53-3.4-6.348-4.373-9.547-1.522Z" fill="#fff"/></mask><g mask="url(#Q)"><path d="M24.97 7.232c-1.7 1.514-1.857 4.499-.32 5.182 2.562 1.136 3-1.685 5.769-1.307 1.923.26 3.497 1.574 4.276 4.195 0 0 1.285-3.319-.178-6.548-1.53-3.4-6.348-4.373-9.548-1.522Z" fill="#683427"/><g style="mix-blend-mode:multiply"><path opacity=".4" d="M27.053 5.34c-1.878 1.789-1.091 3.318-.742 3.623 1.002.876 1.789-.208 3.103-.179 1.7.045 2.049.61 3.452-.133s-.787-2.792-.787-2.792l3.623 2.012.609 5.153-3.103 1.35s-.438-2.36-3.623-1.922c-3.185.438-2.792 2.012-5.546.742-2.755-1.27-1.485-5.241-1.485-5.241l4.499-2.621v.007Z" fill="#fff"/><path opacity=".45" d="M26.77 5.548c-1.759 1.775-1.083 3.349-.578 3.698 1.143.802 1.811-.297 3.259-.268 1.797.038 2.13.654 3.526-.089 1.396-.742-.69-2.85-.69-2.85l3.415 1.833.609 5.153-3.103 1.35s-.438-2.36-3.623-1.922c-3.185.438-2.792 2.012-5.546.742-2.755-1.27-1.485-5.241-1.485-5.241L26.77 5.54v.007Z" fill="#F6F3F2"/><path opacity=".51" d="M26.496 5.762c-1.64 1.76-1.076 3.378-.416 3.779 1.263.757 1.834-.386 3.408-.364 1.893.03 2.205.698 3.6-.045 1.397-.742-.593-2.903-.593-2.903l3.207 1.649.609 5.152-3.103 1.351s-.438-2.36-3.623-1.923c-3.185.438-2.792 2.012-5.546.743-2.755-1.27-1.485-5.242-1.485-5.242l3.942-2.197Z" fill="#EDE7E5"/><path opacity=".56" d="M26.221 5.97c-1.522 1.745-1.076 3.415-.252 3.854 1.366.727 1.863-.476 3.564-.46 1.99.021 2.279.742 3.675 0C34.603 8.62 32.71 6.4 32.71 6.4l2.992 1.47.609 5.152-3.103 1.352s-.438-2.361-3.623-1.923c-3.185.438-2.792 2.012-5.546.742-2.755-1.27-1.485-5.241-1.485-5.241l3.667-1.99v.007Z" fill="#E5DBD8"/><path opacity=".62" d="M25.933 6.18c-1.403 1.73-1.084 3.452-.089 3.927 1.47.698 1.886-.564 3.72-.557 2.086.015 2.353.787 3.749.044 1.396-.742-.409-3.014-.409-3.014l2.785 1.292.608 5.152-3.103 1.352s-.438-2.361-3.623-1.923c-3.185.438-2.792 2.012-5.546.742-2.754-1.27-1.485-5.241-1.485-5.241l3.386-1.782.007.007Z" fill="#DCCFCB"/><path opacity=".67" d="M25.657 6.394c-1.284 1.708-1.091 3.504.074 4.002 1.574.683 1.909-.654 3.876-.654 2.183 0 2.428.832 3.83.09 1.404-.743-.311-3.074-.311-3.074l2.576 1.114.609 5.152-3.103 1.351s-.438-2.36-3.623-1.923c-3.185.438-2.792 2.012-5.546.743-2.755-1.27-1.485-5.242-1.485-5.242l3.11-1.566-.007.007Z" fill="#D3C3BE"/><path opacity=".73" d="M25.383 6.601c-1.166 1.693-1.1 3.549.237 4.076 1.67.66 1.93-.735 4.031-.75 2.272 0 2.502.876 3.906.134 1.403-.743-.216-3.126-.216-3.126l2.361.936.609 5.152-3.103 1.351s-.438-2.36-3.623-1.923c-3.185.438-2.792 2.012-5.546.743-2.755-1.27-1.485-5.242-1.485-5.242l2.829-1.358V6.6Z" fill="#CAB6B0"/><path opacity=".78" d="M25.108 6.81c-1.047 1.678-1.106 3.6.393 4.15 1.775.654 1.96-.824 4.188-.839 2.368-.014 2.583.921 3.979.179 1.396-.743-.119-3.185-.119-3.185l2.153.757.609 5.152-3.103 1.352s-.438-2.361-3.623-1.923c-3.185.438-2.792 2.012-5.546.742-2.755-1.27-1.485-5.242-1.485-5.242l2.554-1.15v.007Z" fill="#C1AAA3"/><path opacity=".84" d="M24.826 7.023c-.928 1.663-1.114 3.66.556 4.232 1.879.639 1.983-.913 4.344-.935 2.465-.023 2.658.958 4.053.215 1.396-.742-.022-3.237-.022-3.237l1.945.58.609 5.152-3.103 1.35s-.438-2.36-3.623-1.922c-3.185.438-2.792 2.012-5.546.742-2.755-1.27-1.485-5.241-1.485-5.241l2.272-.936Z" fill="#B89E96"/><path opacity=".89" d="M24.545 7.234c-.81 1.648-1.121 3.72.72 4.306 1.975.631 2.004-1.002 4.492-1.032 2.56-.03 2.732 1.002 4.128.26 1.395-.743.074-3.296.074-3.296l1.73.4.608 5.153-3.103 1.351s-.438-2.36-3.623-1.923c-3.185.438-2.792 2.012-5.546.743-2.754-1.27-1.485-5.242-1.485-5.242l1.997-.727.008.007Z" fill="#B09289"/><path opacity=".95" d="M24.27 7.44c-.69 1.632-1.128 3.778.884 4.38 2.012.6 2.026-1.092 4.647-1.13 2.658-.036 2.807 1.048 4.202.305 1.396-.742.164-3.348.164-3.348l1.522.223.608 5.152-3.103 1.351s-.438-2.36-3.623-1.922c-3.185.438-2.792 2.011-5.546.742-2.754-1.27-1.485-5.242-1.485-5.242l1.723-.52.007.008Z" fill="#A7867C"/><path d="M23.988 7.656c-.564 1.618-1.136 3.846 1.047 4.454 2.183.61 2.05-1.18 4.804-1.225 2.754-.044 2.88 1.092 4.276.35 1.396-.743.26-3.408.26-3.408l1.307.044.608 5.153-3.103 1.35s-.438-2.36-3.623-1.922c-3.185.438-2.791 2.012-5.546.742-2.754-1.27-1.485-5.241-1.485-5.241l1.44-.305.015.008Z" fill="#9E7A6F"/></g></g><path d="M33.441 13.132c.282-2.042 2.302-1.574 2.874-.104.608 1.574-.09 3.363-1.767 3.282l-1.107-3.17v-.008Z" fill="url(#R)"/><g style="mix-blend-mode:multiply"><path opacity=".4" d="M34.894 12.59c-.46.787-.764 1.396-.63 2.405l.37 1.047c1.33-.55 1.493-2.784.26-3.452Z" fill="#fff"/><path opacity=".45" d="M34.882 12.64c-.453.78-.735 1.374-.616 2.354l.348.98c1.21-.497 1.381-2.62.26-3.333h.008Z" fill="#FEFAF9"/><path opacity=".51" d="M34.872 12.693c-.446.765-.706 1.352-.594 2.31l.334.92c1.091-.446 1.277-2.457.26-3.222v-.008Z" fill="#FDF5F3"/><path opacity=".56" d="M34.864 12.744c-.438.757-.683 1.33-.572 2.257l.312.854c.965-.394 1.166-2.294.26-3.11Z" fill="#FCF0ED"/><path opacity=".62" d="M34.859 12.799c-.438.75-.654 1.3-.557 2.212l.29.787c.846-.349 1.054-2.13.26-3h.007Z" fill="#FBEBE7"/><path opacity=".67" d="M34.849 12.857c-.43.735-.624 1.277-.535 2.16l.275.72c.727-.296.943-1.967.26-2.887v.007Z" fill="#FAE6E1"/><path opacity=".73" d="M34.839 12.908c-.423.728-.594 1.255-.512 2.116l.252.654c.609-.246.839-1.805.26-2.77Z" fill="#F9E1DA"/><path opacity=".78" d="M34.829 12.96c-.416.721-.572 1.233-.498 2.072l.23.587c.483-.2.728-1.64.26-2.658h.008Z" fill="#F8DCD4"/><path opacity=".84" d="M34.812 13.014c-.408.705-.542 1.21-.475 2.02l.215.526c.364-.148.616-1.477.26-2.546Z" fill="#F7D7CE"/><path opacity=".89" d="M34.81 13.066c-.41.698-.513 1.18-.454 1.975l.193.46c.245-.096.513-1.313.26-2.435Z" fill="#F6D2C8"/><path opacity=".95" d="M34.8 13.123c-.402.69-.49 1.158-.439 1.923l.17.393c.12-.052.402-1.15.26-2.316h.008Z" fill="#F5CDC2"/><path d="M34.782 13.176c-.393.675-.46 1.136-.415 1.878l.155.327s.29-.988.26-2.205Z" fill="#F4C8BC"/></g><path style="mix-blend-mode:multiply" d="M28.938 20.54a3.497 3.497 0 1 0 0-6.993 3.497 3.497 0 0 0 0 6.994Z" fill="url(#S)"/><path d="M24.617 10.22c1.225 1.307 2.799.379 4.232-.022 1.136-.327 2.643-.416 3.563.527.32.275.52.639.728.973l-.03.022c-.475-.616-1.084-1.173-1.849-1.351-2.13-.639-5.107 2.168-6.637-.149h-.007Z" fill="#1F130F" style="mix-blend-mode:screen"/><path d="M26.33 8.943c1.292.75 2.665.193 4.068.126 1.582-.148 3.066.728 3.408 2.331l-.037.015c-.535-1.38-1.893-2.168-3.356-1.982-1.307.022-3.118.557-4.09-.497l.007.007ZM27.213 6.99c1.574-1.07 4.061-.943 5.345.527-1.522-.988-3.652-1.07-5.345-.527Z" fill="#1F130F" style="mix-blend-mode:screen"/><path d="M25.856 16.82c.218-.037.354-.312.303-.616-.05-.303-.268-.52-.487-.483-.218.037-.354.312-.303.615.05.304.268.52.487.484ZM24.71 14.861c.208-.593 1.203-.69 1.463-.118-.638-.104-.98.052-1.463.118Z" fill="#683427"/></g></g><defs><linearGradient id="b" x1="16.569" y1="28.484" x2="16.569" y2="22.879" gradientUnits="userSpaceOnUse"><stop stop-color="#F4B6A3"/><stop offset="1" stop-color="#F1A891"/></linearGradient><linearGradient id="c" x1="25.901" y1="40.232" x2="25.901" y2="27.381" gradientUnits="userSpaceOnUse"><stop stop-color="#DEE7F6"/><stop offset="1" stop-color="#8CA5D3"/></linearGradient><linearGradient id="d" x1="32.555" y1="18.633" x2="35.443" y2="21.446" gradientUnits="userSpaceOnUse"><stop stop-color="#F0A58E"/><stop offset=".31" stop-color="#F5B9A6"/><stop offset=".75" stop-color="#FCD0C1"/><stop offset="1" stop-color="#FFD9CC"/></linearGradient><linearGradient id="e" x1="31.634" y1="23.279" x2="41.687" y2="23.279" gradientUnits="userSpaceOnUse"><stop stop-color="#BCCFDF"/><stop offset=".62" stop-color="#D5E4EF"/><stop offset="1" stop-color="#fff"/></linearGradient><linearGradient id="f" x1="40.209" y1="56.482" x2="40.209" y2="28.871" gradientUnits="userSpaceOnUse"><stop stop-color="#7D94C7"/><stop offset=".265" stop-color="#98B2DD"/><stop offset=".54" stop-color="#B7C9E9"/><stop offset=".68" stop-color="#D8E2F3"/><stop offset=".81" stop-color="#EEF5FF"/><stop offset=".92" stop-color="#F8FAFD"/><stop offset="1" stop-color="#fff"/></linearGradient><linearGradient id="g" x1="11.14" y1="40.12" x2="7.138" y2="36.119" gradientUnits="userSpaceOnUse"><stop stop-color="#9BBEDB"/><stop offset=".04" stop-color="#A4C4DE"/><stop offset=".22" stop-color="#C5D9EA"/><stop offset=".4" stop-color="#DEE9F3"/><stop offset=".58" stop-color="#F0F5F9"/><stop offset=".78" stop-color="#FBFCFD"/><stop offset="1" stop-color="#fff"/></linearGradient><linearGradient id="h" x1="9.321" y1="39.363" x2="2.119" y2="32.169" gradientUnits="userSpaceOnUse"><stop stop-color="#9BBEDB"/><stop offset=".04" stop-color="#A4C4DE"/><stop offset=".22" stop-color="#C5D9EA"/><stop offset=".4" stop-color="#DEE9F3"/><stop offset=".58" stop-color="#F0F5F9"/><stop offset=".78" stop-color="#FBFCFD"/><stop offset="1" stop-color="#fff"/></linearGradient><linearGradient id="i" x1="21.627" y1="18.995" x2="21.627" y2="16.308" gradientUnits="userSpaceOnUse"><stop stop-color="#3D49A1"/><stop offset="1" stop-color="#7786C7"/></linearGradient><linearGradient id="j" x1="16.689" y1="17.82" x2="16.689" y2="29.157" gradientUnits="userSpaceOnUse"><stop stop-color="#B5CFE6"/><stop offset=".36" stop-color="#CCDEEE"/><stop offset="1" stop-color="#fff"/></linearGradient><linearGradient id="k" x1="14.291" y1="32.422" x2="19.733" y2="26.98" gradientUnits="userSpaceOnUse"><stop stop-color="#9BBEDB"/><stop offset=".04" stop-color="#A4C4DE"/><stop offset=".22" stop-color="#C5D9EA"/><stop offset=".4" stop-color="#DEE9F3"/><stop offset=".58" stop-color="#F0F5F9"/><stop offset=".78" stop-color="#FBFCFD"/><stop offset="1" stop-color="#fff"/></linearGradient><linearGradient id="l" x1="14.677" y1="30.863" x2="23.059" y2="22.481" gradientUnits="userSpaceOnUse"><stop stop-color="#9BBEDB"/><stop offset=".04" stop-color="#A4C4DE"/><stop offset=".22" stop-color="#C5D9EA"/><stop offset=".4" stop-color="#DEE9F3"/><stop offset=".58" stop-color="#F0F5F9"/><stop offset=".78" stop-color="#FBFCFD"/><stop offset="1" stop-color="#fff"/></linearGradient><linearGradient id="m" x1="15.149" y1="42.623" x2="13.412" y2="38.205" gradientUnits="userSpaceOnUse"><stop stop-color="#9BBEDB"/><stop offset=".04" stop-color="#A4C4DE"/><stop offset=".22" stop-color="#C5D9EA"/><stop offset=".4" stop-color="#DEE9F3"/><stop offset=".58" stop-color="#F0F5F9"/><stop offset=".78" stop-color="#FBFCFD"/><stop offset="1" stop-color="#fff"/></linearGradient><linearGradient id="n" x1="15.08" y1="34.329" x2="19.052" y2="34.329" gradientUnits="userSpaceOnUse"><stop stop-color="#9BBEDB"/><stop offset=".04" stop-color="#A4C4DE"/><stop offset=".22" stop-color="#C5D9EA"/><stop offset=".4" stop-color="#DEE9F3"/><stop offset=".58" stop-color="#F0F5F9"/><stop offset=".78" stop-color="#FBFCFD"/><stop offset="1" stop-color="#fff"/></linearGradient><linearGradient id="o" x1="15.183" y1="33.869" x2="17.492" y2="33.869" gradientUnits="userSpaceOnUse"><stop stop-color="#3D49A1"/><stop offset="1" stop-color="#7480B3"/></linearGradient><linearGradient id="p" x1="15.633" y1="24.492" x2="17.14" y2="24.492" gradientUnits="userSpaceOnUse"><stop stop-color="#3D49A1"/><stop offset="1" stop-color="#7480B3"/></linearGradient><linearGradient id="r" x1="15.516" y1="44.917" x2="15.516" y2="39.051" gradientUnits="userSpaceOnUse"><stop offset=".06" stop-color="#C5D9E8"/><stop offset=".24" stop-color="#D8E5EF"/><stop offset=".5" stop-color="#EDF3F8"/><stop offset=".76" stop-color="#FAFCFD"/><stop offset="1" stop-color="#fff"/></linearGradient><linearGradient id="s" x1="14.209" y1="50.127" x2="14.209" y2="60.483" gradientUnits="userSpaceOnUse"><stop stop-color="#090E3B"/><stop offset=".33" stop-color="#111B63"/></linearGradient><linearGradient id="v" x1="36.552" y1="13.429" x2="33.805" y2="14.342" gradientUnits="userSpaceOnUse"><stop stop-color="#F0A58E"/><stop offset=".23" stop-color="#F6B9A6"/><stop offset=".49" stop-color="#FACBBB"/><stop offset=".75" stop-color="#FDD5C7"/><stop offset="1" stop-color="#FFD9CC"/></linearGradient><linearGradient id="x" x1="16.569" y1="28.484" x2="16.569" y2="22.879" gradientUnits="userSpaceOnUse"><stop stop-color="#F4B6A3"/><stop offset="1" stop-color="#F1A891"/></linearGradient><linearGradient id="y" x1="25.901" y1="40.232" x2="25.901" y2="27.381" gradientUnits="userSpaceOnUse"><stop stop-color="#DEE7F6"/><stop offset="1" stop-color="#8CA5D3"/></linearGradient><linearGradient id="z" x1="32.555" y1="18.633" x2="35.443" y2="21.446" gradientUnits="userSpaceOnUse"><stop stop-color="#F0A58E"/><stop offset=".31" stop-color="#F5B9A6"/><stop offset=".75" stop-color="#FCD0C1"/><stop offset="1" stop-color="#FFD9CC"/></linearGradient><linearGradient id="A" x1="31.634" y1="23.279" x2="41.687" y2="23.279" gradientUnits="userSpaceOnUse"><stop stop-color="#BCCFDF"/><stop offset=".62" stop-color="#D5E4EF"/><stop offset="1" stop-color="#fff"/></linearGradient><linearGradient id="B" x1="40.209" y1="56.482" x2="40.209" y2="28.871" gradientUnits="userSpaceOnUse"><stop stop-color="#7D94C7"/><stop offset=".265" stop-color="#98B2DD"/><stop offset=".54" stop-color="#B7C9E9"/><stop offset=".68" stop-color="#D8E2F3"/><stop offset=".81" stop-color="#EEF5FF"/><stop offset=".92" stop-color="#F8FAFD"/><stop offset="1" stop-color="#fff"/></linearGradient><linearGradient id="C" x1="11.14" y1="40.12" x2="7.138" y2="36.119" gradientUnits="userSpaceOnUse"><stop stop-color="#9BBEDB"/><stop offset=".04" stop-color="#A4C4DE"/><stop offset=".22" stop-color="#C5D9EA"/><stop offset=".4" stop-color="#DEE9F3"/><stop offset=".58" stop-color="#F0F5F9"/><stop offset=".78" stop-color="#FBFCFD"/><stop offset="1" stop-color="#fff"/></linearGradient><linearGradient id="D" x1="9.321" y1="39.363" x2="2.119" y2="32.169" gradientUnits="userSpaceOnUse"><stop stop-color="#9BBEDB"/><stop offset=".04" stop-color="#A4C4DE"/><stop offset=".22" stop-color="#C5D9EA"/><stop offset=".4" stop-color="#DEE9F3"/><stop offset=".58" stop-color="#F0F5F9"/><stop offset=".78" stop-color="#FBFCFD"/><stop offset="1" stop-color="#fff"/></linearGradient><linearGradient id="E" x1="21.627" y1="18.995" x2="21.627" y2="16.308" gradientUnits="userSpaceOnUse"><stop stop-color="#3D49A1"/><stop offset="1" stop-color="#7786C7"/></linearGradient><linearGradient id="F" x1="16.689" y1="17.82" x2="16.689" y2="29.157" gradientUnits="userSpaceOnUse"><stop stop-color="#B5CFE6"/><stop offset=".36" stop-color="#CCDEEE"/><stop offset="1" stop-color="#fff"/></linearGradient><linearGradient id="G" x1="14.291" y1="32.422" x2="19.733" y2="26.98" gradientUnits="userSpaceOnUse"><stop stop-color="#9BBEDB"/><stop offset=".04" stop-color="#A4C4DE"/><stop offset=".22" stop-color="#C5D9EA"/><stop offset=".4" stop-color="#DEE9F3"/><stop offset=".58" stop-color="#F0F5F9"/><stop offset=".78" stop-color="#FBFCFD"/><stop offset="1" stop-color="#fff"/></linearGradient><linearGradient id="H" x1="14.677" y1="30.863" x2="23.059" y2="22.481" gradientUnits="userSpaceOnUse"><stop stop-color="#9BBEDB"/><stop offset=".04" stop-color="#A4C4DE"/><stop offset=".22" stop-color="#C5D9EA"/><stop offset=".4" stop-color="#DEE9F3"/><stop offset=".58" stop-color="#F0F5F9"/><stop offset=".78" stop-color="#FBFCFD"/><stop offset="1" stop-color="#fff"/></linearGradient><linearGradient id="I" x1="15.149" y1="42.623" x2="13.412" y2="38.205" gradientUnits="userSpaceOnUse"><stop stop-color="#9BBEDB"/><stop offset=".04" stop-color="#A4C4DE"/><stop offset=".22" stop-color="#C5D9EA"/><stop offset=".4" stop-color="#DEE9F3"/><stop offset=".58" stop-color="#F0F5F9"/><stop offset=".78" stop-color="#FBFCFD"/><stop offset="1" stop-color="#fff"/></linearGradient><linearGradient id="J" x1="15.08" y1="34.329" x2="19.052" y2="34.329" gradientUnits="userSpaceOnUse"><stop stop-color="#9BBEDB"/><stop offset=".04" stop-color="#A4C4DE"/><stop offset=".22" stop-color="#C5D9EA"/><stop offset=".4" stop-color="#DEE9F3"/><stop offset=".58" stop-color="#F0F5F9"/><stop offset=".78" stop-color="#FBFCFD"/><stop offset="1" stop-color="#fff"/></linearGradient><linearGradient id="K" x1="15.183" y1="33.869" x2="17.492" y2="33.869" gradientUnits="userSpaceOnUse"><stop stop-color="#3D49A1"/><stop offset="1" stop-color="#7480B3"/></linearGradient><linearGradient id="L" x1="15.633" y1="24.492" x2="17.14" y2="24.492" gradientUnits="userSpaceOnUse"><stop stop-color="#3D49A1"/><stop offset="1" stop-color="#7480B3"/></linearGradient><linearGradient id="N" x1="15.516" y1="44.917" x2="15.516" y2="39.051" gradientUnits="userSpaceOnUse"><stop offset=".06" stop-color="#C5D9E8"/><stop offset=".24" stop-color="#D8E5EF"/><stop offset=".5" stop-color="#EDF3F8"/><stop offset=".76" stop-color="#FAFCFD"/><stop offset="1" stop-color="#fff"/></linearGradient><linearGradient id="O" x1="14.209" y1="50.127" x2="14.209" y2="60.483" gradientUnits="userSpaceOnUse"><stop stop-color="#090E3B"/><stop offset=".33" stop-color="#111B63"/></linearGradient><linearGradient id="R" x1="36.552" y1="13.429" x2="33.805" y2="14.342" gradientUnits="userSpaceOnUse"><stop stop-color="#F0A58E"/><stop offset=".23" stop-color="#F6B9A6"/><stop offset=".49" stop-color="#FACBBB"/><stop offset=".75" stop-color="#FDD5C7"/><stop offset="1" stop-color="#FFD9CC"/></linearGradient><radialGradient id="w" cx="0" cy="0" r="1" gradientUnits="userSpaceOnUse" gradientTransform="translate(28.938 17.044) scale(3.49684)"><stop stop-color="#FFDBCC"/><stop offset=".38" stop-color="#FFEDE6"/><stop offset=".74" stop-color="#FFFAF8"/><stop offset="1" stop-color="#fff"/></radialGradient><radialGradient id="S" cx="0" cy="0" r="1" gradientUnits="userSpaceOnUse" gradientTransform="translate(28.938 17.044) scale(3.49684)"><stop stop-color="#FFDBCC"/><stop offset=".38" stop-color="#FFEDE6"/><stop offset=".74" stop-color="#FFFAF8"/><stop offset="1" stop-color="#fff"/></radialGradient><clipPath id="a"><rect width="50" height="50" rx="25" fill="#fff"/></clipPath></defs></svg>