<svg width="20" height="20" fill="none" xmlns="http://www.w3.org/2000/svg"><path d="m13.416 11.083-1.208-1.208c.125-.653-.063-1.264-.563-1.833-.5-.57-1.145-.792-1.937-.667L8.5 6.167c.236-.111.475-.195.718-.25A3.5 3.5 0 0 1 10 5.833c1.041 0 1.927.365 2.656 1.094.73.73 1.094 1.615 1.094 2.656 0 .278-.028.538-.084.782a3.527 3.527 0 0 1-.25.718Zm2.667 2.625-1.208-1.166a9.123 9.123 0 0 0 1.406-1.323c.41-.48.76-1.025 1.052-1.636a8.191 8.191 0 0 0-2.99-3.343C13.045 5.413 11.597 5 10 5c-.403 0-.799.028-1.188.083a8.02 8.02 0 0 0-1.146.25L6.375 4.042A9.234 9.234 0 0 1 10 3.333c2.097 0 3.965.58 5.604 1.74 1.639 1.16 2.826 2.663 3.562 4.51-.32.82-.74 1.58-1.26 2.282a9.17 9.17 0 0 1-1.823 1.843Zm.417 5.125L13 15.375a9.983 9.983 0 0 1-1.47.344 9.988 9.988 0 0 1-1.53.114c-2.098 0-3.966-.58-5.604-1.74-1.64-1.159-2.827-2.662-3.563-4.51.292-.736.66-1.42 1.104-2.052a9.595 9.595 0 0 1 1.521-1.698L1.166 3.5l1.167-1.167 15.333 15.334-1.166 1.166ZM4.625 7A8.95 8.95 0 0 0 3.52 8.187c-.334.431-.619.896-.855 1.396a8.192 8.192 0 0 0 2.99 3.344c1.299.827 2.746 1.24 4.344 1.24.277 0 .548-.018.812-.052.264-.035.535-.073.813-.115l-.75-.792a3.83 3.83 0 0 1-.438.094c-.139.02-.284.031-.437.031-1.042 0-1.927-.364-2.657-1.093-.729-.73-1.093-1.615-1.093-2.657 0-.152.01-.298.03-.437a3.82 3.82 0 0 1 .095-.438L4.625 7Z" fill="#808698"/></svg>