<svg width="71" height="70" viewBox="0 0 71 70" fill="none" xmlns="http://www.w3.org/2000/svg">
<path d="M34.3548 12.6638H10.0763C9.19817 12.6638 8.48633 13.3757 8.48633 14.2538V45.4698C8.48633 46.3479 9.19817 47.0597 10.0763 47.0597H34.3548C35.2329 47.0597 35.9448 46.3479 35.9448 45.4698V14.2538C35.9448 13.3757 35.2329 12.6638 34.3548 12.6638Z" fill="white"/>
<path d="M61.8128 12.6638H37.5343C36.6562 12.6638 35.9443 13.3757 35.9443 14.2538V45.4698C35.9443 46.3479 36.6562 47.0597 37.5343 47.0597H61.8128C62.6909 47.0597 63.4028 46.3479 63.4028 45.4698V14.2538C63.4028 13.3757 62.6909 12.6638 61.8128 12.6638Z" fill="white"/>
<path d="M39.443 47.6428H32.4473V60.9189H39.443V47.6428Z" fill="#358ACE"/>
<path d="M49.4484 62C49.4484 59.2812 43.4013 57.0818 35.9444 57.0818C28.4875 57.0818 22.4404 59.2812 22.4404 62H49.4537H49.4484Z" fill="#4EA1E4"/>
<path d="M66.2333 8H5.65089C4.18738 8 3.00098 9.18641 3.00098 10.6499V49.6567C3.00098 51.1202 4.18738 52.3066 5.65089 52.3066H66.2333C67.6968 52.3066 68.8832 51.1202 68.8832 49.6567V10.6499C68.8832 9.18641 67.6968 8 66.2333 8Z" fill="#4EA1E4"/>
<path d="M61.808 12.6638H10.0763C9.19817 12.6638 8.48633 13.3757 8.48633 14.2538V45.4698C8.48633 46.3479 9.19817 47.0597 10.0763 47.0597H61.808C62.6861 47.0597 63.3979 46.3479 63.3979 45.4698V14.2538C63.3979 13.3757 62.6861 12.6638 61.808 12.6638Z" fill="white"/>
<path d="M42.956 16.0769L36.4001 17.5768L38.0272 19.3257L32.1338 24.4877L27.7561 20.2426L26.6908 21.2972L26.6802 21.2866L20.7656 26.6501L22.0323 28.028L27.7508 22.8395L32.1391 27.09L33.3103 25.9346H33.3156L39.2938 20.6931L40.9792 22.5056L42.956 16.0769Z" fill="#3A3A3A"/>
<path d="M26.3201 34.7959H21.0732V42.2157H26.3201V34.7959Z" fill="#2BB997"/>
<path d="M34.4822 29.8618H29.2354V42.2157H34.4822V29.8618Z" fill="#FE8D76"/>
<path d="M50.8103 20.0464H45.5635V42.2103H50.8103V20.0464Z" fill="#64B4F4"/>
<path d="M42.6492 27.3708H37.4023V42.2104H42.6492V27.3708Z" fill="#4CC2A6"/>
<path d="M32.1338 24.4878L27.7561 20.2427L26.6908 21.2973L26.6802 21.2867L20.7656 26.6502L22.0323 28.0281L27.7508 22.8396L32.1391 27.0901L33.3103 25.9347H33.3156L35.9443 23.6346V21.1489L32.1338 24.4878Z" fill="#FF576B"/>
<path d="M36.4001 17.5768L38.0272 19.3257L35.9443 21.1488V23.6345L39.2938 20.6931L40.9792 22.5056L42.956 16.0769L36.4001 17.5768Z" fill="#FF576B"/>
</svg>
