<svg width="100" height="100" fill="none" xmlns="http://www.w3.org/2000/svg"><path fill-rule="evenodd" clip-rule="evenodd" d="M77.63 77a5 5 0 0 0 5-5V56.08a5 5 0 0 0-5-5H34.556a5 5 0 0 0-5 5v3.492l-6.272-1.363c-.944-.205-1.602.916-.961 1.64l7.233 8.176V72a5 5 0 0 0 5 5H77.63Z" fill="#4CC2A6"/><path d="M72.756 59.412H39.43M72.756 67.743H48.687" stroke="#fff" stroke-width="2" stroke-linecap="round"/><path fill-rule="evenodd" clip-rule="evenodd" d="M22 23a5 5 0 0 0-5 5v15.92a5 5 0 0 0 5 5h43.074a5 5 0 0 0 5-5v-3.493l6.272 1.364c.944.205 1.602-.916.961-1.64l-7.233-8.176V28a5 5 0 0 0-5-5H22Z" fill="#4EA1E4"/><path d="M26.162 31.331h33.326M26.162 39.663h24.069" stroke="#fff" stroke-width="2" stroke-linecap="round"/></svg>