<svg width="100" height="100" fill="none" xmlns="http://www.w3.org/2000/svg"><g clip-path="url(#a)"><path d="M48.354 27.664H24.075a1.59 1.59 0 0 0-1.59 1.59V60.47c0 .878.712 1.59 1.59 1.59h24.279a1.59 1.59 0 0 0 1.59-1.59V29.254a1.59 1.59 0 0 0-1.59-1.59Z" fill="#fff"/><path d="M75.812 27.664H51.533a1.59 1.59 0 0 0-1.59 1.59V60.47c0 .878.712 1.59 1.59 1.59h24.279a1.59 1.59 0 0 0 1.59-1.59V29.254a1.59 1.59 0 0 0-1.59-1.59Z" fill="#fff"/><path d="M53.442 62.643h-6.996v13.276h6.996V62.643Z" fill="#358ACE"/><path d="M63.447 77c0-2.719-6.047-4.918-13.504-4.918-7.456 0-13.503 2.2-13.503 4.918h27.013-.006ZM80.232 23H19.65A2.65 2.65 0 0 0 17 25.65v39.007a2.65 2.65 0 0 0 2.65 2.65h60.582a2.65 2.65 0 0 0 2.65-2.65V25.65a2.65 2.65 0 0 0-2.65-2.65Z" fill="#4EA1E4"/><path d="M75.807 27.664H24.075a1.59 1.59 0 0 0-1.59 1.59V60.47c0 .878.712 1.59 1.59 1.59h51.732a1.59 1.59 0 0 0 1.59-1.59V29.254a1.59 1.59 0 0 0-1.59-1.59Z" fill="#fff"/><path d="m56.955 31.077-6.556 1.5 1.627 1.749-5.893 5.162-4.378-4.245-1.065 1.054-.01-.01-5.915 5.363 1.266 1.378 5.719-5.188 4.388 4.25 1.171-1.155h.006l5.978-5.242 1.685 1.813 1.977-6.43Z" fill="#3A3A3A"/><path d="M40.32 49.796h-5.248v7.42h5.247v-7.42Z" fill="#2BB997"/><path d="M48.481 44.862h-5.247v12.354h5.247V44.862Z" fill="#FE8D76"/><path d="M64.81 35.046h-5.248V57.21h5.247V35.046Z" fill="#64B4F4"/><path d="M56.648 42.37h-5.247v14.84h5.247V42.37Z" fill="#4CC2A6"/><path d="m46.133 39.488-4.378-4.245-1.065 1.054-.01-.01-5.915 5.363 1.266 1.378 5.719-5.188 4.388 4.25 1.171-1.155h.006l2.628-2.3v-2.486l-3.81 3.339Z" fill="#FF576B"/><path d="m50.4 32.577 1.626 1.749-2.083 1.823v2.486l3.35-2.942 1.685 1.813 1.977-6.43-6.556 1.5Z" fill="#FF576B"/></g><defs><clipPath id="a"><path fill="#fff" transform="translate(17 23)" d="M0 0h65.882v54H0z"/></clipPath></defs></svg>