<svg width="100" height="100" fill="none" xmlns="http://www.w3.org/2000/svg"><rect x="10" y="23" width="66.316" height="54" rx="10" fill="#4EA1E4"/><path opacity=".5" d="M22.316 55.21h42.632M22.316 64.684h18.947" stroke="#fff" stroke-width="3" stroke-linecap="round"/><path d="M26.294 31.398a1 1 0 0 1 1.793 0l1.256 2.543a1 1 0 0 0 .752.547l2.809.41a1 1 0 0 1 .553 1.706l-2.031 1.979a1 1 0 0 0-.288.885l.48 2.794a1 1 0 0 1-1.452 1.054l-2.51-1.32a1 1 0 0 0-.93 0l-2.51 1.32a1 1 0 0 1-1.452-1.054l.48-2.794a1 1 0 0 0-.289-.885l-2.03-1.978a1 1 0 0 1 .552-1.706l2.81-.41a1 1 0 0 0 .752-.548l1.255-2.543ZM42.675 31.398a1 1 0 0 1 1.793 0l1.256 2.543a1 1 0 0 0 .752.547l2.809.41a1 1 0 0 1 .553 1.706l-2.031 1.979a1 1 0 0 0-.288.885l.479 2.794a1 1 0 0 1-1.451 1.054l-2.51-1.32a1 1 0 0 0-.931 0l-2.51 1.32a1 1 0 0 1-1.451-1.054l.48-2.794a1 1 0 0 0-.289-.885l-2.03-1.978a1 1 0 0 1 .552-1.706l2.81-.41a1 1 0 0 0 .751-.548l1.256-2.543ZM59.057 31.398a1 1 0 0 1 1.793 0l1.255 2.543a1 1 0 0 0 .753.547l2.809.41a1 1 0 0 1 .553 1.706l-2.031 1.979a1 1 0 0 0-.288.885l.479 2.794a1 1 0 0 1-1.451 1.054l-2.51-1.32a1 1 0 0 0-.931 0l-2.51 1.32a1 1 0 0 1-1.451-1.054l.479-2.794a1 1 0 0 0-.288-.885l-2.031-1.978a1 1 0 0 1 .553-1.706l2.81-.41a1 1 0 0 0 .751-.548l1.256-2.543Z" fill="#FFDD63"/><path d="M53.188 60.554 79.442 34.3a3 3 0 0 1 4.242 0l4.488 4.488a3 3 0 0 1 0 4.243L61.92 69.284l-8.731-8.73Z" fill="#11CA9D"/><path d="m51.733 70.74 1.455-10.186 8.73 8.73-10.185 1.456Z" fill="#E1EEF9"/><path d="m51.733 70.74.728-5.093 4.365 4.365-5.093.728Z" fill="#fff"/><path d="m51.733 70.74.728-5.093 4.365 4.365-5.093.728Z" fill="#60524F"/></svg>