<svg width="71" height="70" viewBox="0 0 71 70" fill="none" xmlns="http://www.w3.org/2000/svg">
<path d="M6.12109 17C6.12109 11.4772 10.5982 7 16.1211 7H47.7C53.2229 7 57.7 11.4772 57.7 17V53C57.7 58.5229 53.2229 63 47.7 63H16.1211C10.5982 63 6.12109 58.5228 6.12109 53V17Z" fill="#4EA1E4"/>
<path opacity="0.5" d="M15.7002 32H48.8581" stroke="white" stroke-width="3" stroke-linecap="round"/>
<path opacity="0.5" d="M15.7002 40H48.8581" stroke="white" stroke-width="3" stroke-linecap="round"/>
<path opacity="0.5" d="M15.7002 48H30.437" stroke="white" stroke-width="3" stroke-linecap="round"/>
<path d="M18.5946 13.9355C18.9615 13.1924 20.0212 13.1924 20.3881 13.9355L21.1135 15.4053C21.2591 15.7001 21.5403 15.9046 21.8656 15.9522L23.4897 16.1895C24.3096 16.3094 24.6363 17.3172 24.0428 17.8954L22.8692 19.0384C22.6333 19.2682 22.5256 19.5993 22.5813 19.9238L22.8581 21.5375C22.9982 22.3545 22.1406 22.9774 21.407 22.5916L19.9568 21.829C19.6654 21.6757 19.3173 21.6757 19.0259 21.829L17.5757 22.5916C16.8421 22.9774 15.9845 22.3545 16.1246 21.5375L16.4014 19.9238C16.457 19.5993 16.3494 19.2682 16.1135 19.0384L14.9399 17.8954C14.3463 17.3172 14.6731 16.3094 15.493 16.1895L17.1171 15.9522C17.4424 15.9046 17.7236 15.7001 17.8691 15.4053L18.5946 13.9355Z" fill="#FFDD63"/>
<path d="M31.3349 13.9355C31.7017 13.1924 32.7615 13.1924 33.1283 13.9355L33.8538 15.4053C33.9993 15.7001 34.2805 15.9046 34.6059 15.9522L36.2299 16.1895C37.0498 16.3094 37.3766 17.3172 36.783 17.8954L35.6094 19.0384C35.3735 19.2682 35.2659 19.5993 35.3215 19.9238L35.5983 21.5375C35.7384 22.3545 34.8809 22.9774 34.1472 22.5916L32.697 21.829C32.4056 21.6757 32.0575 21.6757 31.7661 21.829L30.3159 22.5916C29.5823 22.9774 28.7247 22.3545 28.8649 21.5375L29.1416 19.9238C29.1973 19.5993 29.0896 19.2682 28.8537 19.0384L27.6802 17.8954C27.0866 17.3172 27.4134 16.3094 28.2333 16.1895L29.8573 15.9522C30.1827 15.9046 30.4638 15.7001 30.6094 15.4053L31.3349 13.9355Z" fill="#FFDD63"/>
<path d="M44.0771 13.9355C44.4439 13.1924 45.5036 13.1924 45.8705 13.9355L46.596 15.4053C46.7415 15.7001 47.0227 15.9046 47.348 15.9522L48.9721 16.1895C49.792 16.3094 50.1188 17.3172 49.5252 17.8954L48.3516 19.0384C48.1157 19.2682 48.0081 19.5993 48.0637 19.9238L48.3405 21.5375C48.4806 22.3545 47.6231 22.9774 46.8894 22.5916L45.4392 21.829C45.1478 21.6757 44.7997 21.6757 44.5083 21.829L43.0581 22.5916C42.3245 22.9774 41.4669 22.3545 41.607 21.5375L41.8838 19.9238C41.9395 19.5993 41.8318 19.2682 41.5959 19.0384L40.4224 17.8954C39.8288 17.3172 40.1555 16.3094 40.9755 16.1895L42.5995 15.9522C42.9248 15.9046 43.206 15.7001 43.3516 15.4053L44.0771 13.9355Z" fill="#FFDD63"/>
<path d="M39.7129 36.2083L59.661 16.2602C60.8326 15.0886 62.732 15.0886 63.9036 16.2602L66.4516 18.8081C67.6231 19.9797 67.6231 21.8792 66.4516 23.0508L46.5035 42.9988L39.7129 36.2083Z" fill="#11CA9D"/>
<path d="M38.5808 44.1306L39.7126 36.2083L46.5032 42.9989L38.5808 44.1306Z" fill="#E1EEF9"/>
<path d="M38.5805 44.1308L39.1463 40.1696L42.5416 43.5649L38.5805 44.1308Z" fill="white"/>
<path d="M38.5805 44.1308L39.1463 40.1696L42.5416 43.5649L38.5805 44.1308Z" fill="#60524F"/>
</svg>
