<svg width="100" height="100" fill="none" xmlns="http://www.w3.org/2000/svg"><path d="M75.742 38.727H62.985c-.695 0-1.258.508-1.258 1.134v41.37c0 .625.563 1.133 1.258 1.133H77V39.86c0-.626-.564-1.134-1.258-1.134Z" fill="#1DB591"/><path d="M70.614 33.273a1.25 1.25 0 0 0-2.5 0h2.5Zm-2.5 0v5.454h2.5v-5.454h-2.5Z" fill="#2C9CCC"/><path d="M50.818 27.818H23.545v54.546h27.273V27.818Z" fill="#4EA1E4"/><path d="M51.364 22.363H23v5.455h28.364v-5.455Z" fill="#fff"/><path d="M45 18H29.363a2 2 0 0 0-2 2v2.364H47V20a2 2 0 0 0-2-2Z" fill="#1DB591"/><path d="M33.049 45.181H30.09v2.958h2.958V45.18ZM38.81 45.181h-2.958v2.958h2.958V45.18ZM33.049 50.882H30.09v2.958h2.958v-2.958ZM38.81 50.882h-2.958v2.958h2.958v-2.958ZM33.049 56.357H30.09v2.957h2.958v-2.957ZM38.81 56.357h-2.958v2.957h2.958v-2.957ZM33.049 61.82H30.09v2.957h2.958V61.82ZM38.81 61.82h-2.958v2.957h2.958V61.82ZM44.72 45.181h-2.957v2.958h2.958V45.18ZM44.72 50.882h-2.957v2.958h2.958v-2.958ZM33.049 33.927H30.09v2.958h2.958v-2.958ZM38.81 33.927h-2.958v2.958h2.958v-2.958ZM33.049 39.627H30.09v2.958h2.958v-2.958ZM38.81 39.627h-2.958v2.958h2.958v-2.958ZM44.72 33.927h-2.957v2.958h2.958v-2.958ZM44.72 39.627h-2.957v2.958h2.958v-2.958ZM44.72 56.357h-2.957v2.957h2.958v-2.957ZM44.72 61.82h-2.957v2.957h2.958V61.82ZM33.049 67.526H30.09v2.958h2.958v-2.958ZM38.81 67.526h-2.958v2.958h2.958v-2.958ZM33.049 73.001H30.09v2.958h2.958V73ZM38.81 73.001h-2.958v2.958h2.958V73ZM44.72 67.526h-2.957v2.958h2.958v-2.958ZM44.72 73.001h-2.957v2.958h2.958V73ZM68.272 51.818H50.817v30.546h17.455V51.818Z" fill="#fff"/><path d="M66.272 46.364H50.817v5.454h17.455v-3.454a2 2 0 0 0-2-2Z" fill="#D6E8F5"/><path d="M56.318 64.88h-2.021v2.02h2.02v-2.02ZM60.251 64.88h-2.02v2.02h2.02v-2.02ZM56.318 68.774h-2.021v2.02h2.02v-2.02ZM60.251 68.774h-2.02v2.02h2.02v-2.02ZM56.318 72.51h-2.021v2.021h2.02v-2.02ZM60.251 72.51h-2.02v2.021h2.02v-2.02ZM56.318 76.242h-2.021v2.02h2.02v-2.02ZM60.251 76.242h-2.02v2.02h2.02v-2.02ZM64.29 64.88h-2.02v2.02h2.02v-2.02ZM64.29 68.774h-2.02v2.02h2.02v-2.02ZM56.318 57.192h-2.021v2.021h2.02v-2.02ZM60.251 57.192h-2.02v2.021h2.02v-2.02ZM56.318 61.087h-2.021v2.02h2.02v-2.02ZM60.251 61.087h-2.02v2.02h2.02v-2.02ZM64.29 57.192h-2.02v2.021h2.02v-2.02ZM64.29 61.087h-2.02v2.02h2.02v-2.02ZM64.29 72.51h-2.02v2.021h2.02v-2.02ZM64.29 76.242h-2.02v2.02h2.02v-2.02Z" fill="#27A4CB"/></svg>