<svg width="100" height="100" fill="none" xmlns="http://www.w3.org/2000/svg"><path opacity=".95" d="M77.458 74.625h1.388c.693-.023 1.155-.615 1.153-1.254l-.073-34.727c0-1.267-.377-2.243-1.118-2.917-.922-.838-2.058-.812-2.374-.812H45.626c-.35 0-.49-.134-.54-.199-.012-.041-.007-.025-.043-.09l-3.689-6.928A3.058 3.058 0 0 0 38.692 26h-8.513c-2.302 0-3.29 1.894-3.382 3.177-.002.028-.013.04-.013.068v44.687s.961.66 2.311.66l48.366.033h-.003Z" fill="#118C6E"/><path opacity=".95" d="M29.095 74.593c-1.32 0-3.64-.711-3.996-3.4L20.08 38.758c-.068-.344-.34-2.06.734-3.394.503-.626 1.496-1.356 3.348-1.356h10.898a3.318 3.318 0 0 1 3.1 1.999l3.472 6.477c.035.066.04.073.057.133.056.103.218.306.636.306h28.728c2.788 0 3.949 2.195 4.173 3.365l4.704 26.834c.03.102.046.223.046.335 0 .639-.518 1.168-1.157 1.168h-.006l-49.718-.032h-.001Z" fill="#1EB792"/></svg>