
<svg width="34" height="30" fill="none" xmlns="http://www.w3.org/2000/svg"><path d="m7.944 15.156 4.15 3.864c.401.374.867.658 1.357.837.497.187 1.02.284 1.549.284.53 0 1.052-.09 1.55-.284.497-.187.955-.47 1.356-.837l4.15-3.864 4.15-3.864L29 8.692v-.45s-.008-.066-.008-.104a2.624 2.624 0 0 0-.891-1.868 2.854 2.854 0 0 0-.923-.56 3.082 3.082 0 0 0-1.124-.21H3.946a3.081 3.081 0 0 0-2.047.77c-.265.239-.482.523-.634.837a2.492 2.492 0 0 0-.257 1.031c0 .038-.008.068-.008.105v.448l2.794 2.601 4.15 3.864Z" stroke="#fff" stroke-width="2" stroke-linecap="round" stroke-linejoin="round"/><path d="m2 26.5 9-8M28 26.5l-9-8" stroke="#fff" stroke-width="2"/><path d="M1 8.691v16.816c0 1.518 1.317 2.743 2.946 2.743h22.108c1.63 0 2.946-1.225 2.946-2.742V8.69" stroke="#fff" stroke-width="2" stroke-linecap="round" stroke-linejoin="round"/><circle cx="26" cy="8.5" r="7" fill="#fff" stroke="#378FD7" stroke-width="2"/><path d="M23 8.5h6M26.5 6 29 8.5 26.5 11" stroke="#378FD7" stroke-width="2" stroke-linecap="round" stroke-linejoin="round"/></svg>