<svg width="26" height="21" fill="none" xmlns="http://www.w3.org/2000/svg"><path d="M2 1.2v15.08c6.949 0 11 1.51 11 3.373V4.573C13 2.71 8.95 1.2 2 1.2Z" fill="#fff" stroke="#1C243E" stroke-width="2" stroke-linecap="round" stroke-linejoin="round"/><path d="M9.805 5.627c-1.21-.357-2.745-.629-4.57-.77l4.57.77Z" fill="#fff"/><path d="M9.805 5.627c-1.21-.357-2.745-.629-4.57-.77" stroke="#1C243E" stroke-width="1.5" stroke-linecap="round" stroke-linejoin="round"/><path d="M9.805 9.19c-1.21-.357-2.745-.628-4.57-.77l4.57.77Z" fill="#fff"/><path d="M9.805 9.19c-1.21-.357-2.745-.628-4.57-.77" stroke="#1C243E" stroke-width="1.5" stroke-linecap="round" stroke-linejoin="round"/><path d="M9.805 12.76c-1.21-.358-2.745-.629-4.57-.77l4.57.77Z" fill="#fff"/><path d="M9.805 12.76c-1.21-.358-2.745-.629-4.57-.77" stroke="#1C243E" stroke-width="1.5" stroke-linecap="round" stroke-linejoin="round"/><path d="M24 1.2v15.081c-6.948 0-11 1.51-11 3.372V4.573C13 2.71 17.052 1.2 24 1.2Z" fill="#fff" stroke="#1C243E" stroke-width="2" stroke-linecap="round" stroke-linejoin="round"/><path d="M16.195 5.627c1.21-.357 2.745-.629 4.57-.77l-4.57.77Z" fill="#fff"/><path d="M16.195 5.627c1.21-.357 2.745-.629 4.57-.77" stroke="#1C243E" stroke-width="1.5" stroke-linecap="round" stroke-linejoin="round"/><path d="M16.195 9.19c1.21-.357 2.745-.628 4.57-.77l-4.57.77Z" fill="#fff"/><path d="M16.195 9.19c1.21-.357 2.745-.628 4.57-.77" stroke="#1C243E" stroke-width="1.5" stroke-linecap="round" stroke-linejoin="round"/><path d="M16.195 12.76c1.21-.358 2.745-.629 4.57-.77l-4.57.77Z" fill="#fff"/><path d="M16.195 12.76c1.21-.358 2.745-.629 4.57-.77" stroke="#1C243E" stroke-width="1.5" stroke-linecap="round" stroke-linejoin="round"/></svg>