<svg width="100" height="100" fill="none" xmlns="http://www.w3.org/2000/svg"><rect x="11" y="2" width="72" height="90" rx="10" fill="#fff"/><circle cx="47" cy="29" r="17" fill="#E8F8F4"/><mask id="a" style="mask-type:alpha" maskUnits="userSpaceOnUse" x="30" y="12" width="34" height="34"><circle cx="47" cy="29" r="17" fill="#E8F8F4"/></mask><g mask="url(#a)" fill="#1EB792"><path d="M54.2 26.2a7.2 7.2 0 1 1-14.4 0 7.2 7.2 0 0 1 14.4 0Z"/><path d="M35 43.148a9.6 9.6 0 0 1 9.6-9.6h4.8a9.6 9.6 0 0 1 9.6 9.6v4.8H35v-4.8Z"/></g><path d="M24 57.75h46M24 67.75h46M24 77.75h26" stroke="#B5DCD2" stroke-width="3" stroke-linecap="round"/><circle cx="73" cy="82" r="16" fill="#FF7053"/><path d="M67 82h12M73 88V76" stroke="#fff" stroke-width="3" stroke-linecap="round"/></svg>