<svg width="80" height="80" viewBox="0 0 80 80" fill="none" xmlns="http://www.w3.org/2000/svg">
<path d="M0 15C0 9.47715 4.47715 5 10 5H70C75.5229 5 80 9.47715 80 15V21H0V15Z" fill="#378FD7"/>
<circle cx="10" cy="13" r="3" fill="white"/>
<circle cx="18" cy="13" r="3" fill="white"/>
<circle cx="26" cy="13" r="3" fill="white"/>
<path d="M0 21H80V65C80 70.5228 75.5229 75 70 75H10C4.47715 75 0 70.5228 0 65V21Z" fill="white"/>
<path d="M22.8053 52.62L18.7013 47.022L16.7033 49.326V52.62H13.4273V37.95H16.7033V44.862L22.5713 37.95H26.5853L20.8253 44.592L26.8913 52.62H22.8053ZM38.1004 52.62L37.0744 49.776H31.3864L30.3604 52.62H26.9764L32.6644 37.95H36.0664L41.7544 52.62H38.1004ZM32.3944 46.932H36.0664L34.2304 41.82L32.3944 46.932ZM42.6871 52.62V37.95H48.3211C52.1371 37.95 54.3691 40.074 54.3691 43.314C54.3691 46.59 52.1371 48.714 48.3211 48.714H45.9631V52.62H42.6871ZM45.9631 45.816H48.1771C49.9951 45.816 51.0931 44.952 51.0931 43.314C51.0931 41.694 49.9951 40.848 48.1771 40.848H45.9631V45.816ZM61.3004 37.59C64.5764 37.59 67.0244 39.588 67.1864 42.378H63.8024C63.6044 41.1 62.6504 40.326 61.0844 40.326C59.5544 40.326 58.7084 40.938 58.7084 41.82C58.7084 42.918 59.8424 43.296 62.7044 43.89C66.0884 44.592 67.2404 46.266 67.2404 48.462C67.2404 51.27 64.5944 52.98 61.3184 52.98C57.7004 52.98 55.0544 51.018 54.9104 47.886H58.2764C58.4564 49.29 59.6804 50.226 61.5524 50.226C62.8844 50.226 63.8744 49.56 63.8744 48.606C63.8744 47.436 62.8844 46.968 60.2744 46.482C57.0884 45.888 55.3604 44.574 55.3604 41.82C55.3604 39.174 57.9884 37.59 61.3004 37.59Z" fill="#173B65"/>
</svg>
