<svg width="100" height="100" fill="none" xmlns="http://www.w3.org/2000/svg"><rect x="10" y="5" width="72" height="90" rx="10" fill="#fff"/><path d="M23 70.75h46M23 80.75h26" stroke="#BAD6ED" stroke-width="3" stroke-linecap="round"/><path stroke="#1A6894" stroke-width="3" d="m60.061 53.939 10.606 10.607"/><rect x="71.02" y="55.707" width="26" height="13" rx="3" transform="rotate(45 71.02 55.707)" fill="#B6E3FD"/><circle cx="46" cy="39" r="24" fill="#4EA1E4"/><circle cx="46" cy="39" r="17" fill="#EEF7FF"/><mask id="a" style="mask-type:alpha" maskUnits="userSpaceOnUse" x="29" y="22" width="34" height="34"><circle cx="46" cy="39" r="17" fill="#4EA1E4"/></mask><g mask="url(#a)" fill="#9CC6E8"><path d="M53.2 36.2a7.2 7.2 0 1 1-14.4 0 7.2 7.2 0 0 1 14.4 0Z"/><path d="M34 53.148a9.6 9.6 0 0 1 9.6-9.6h4.8a9.6 9.6 0 0 1 9.6 9.6v4.8H34v-4.8Z"/></g></svg>