
<svg width="36" height="42" fill="none" xmlns="http://www.w3.org/2000/svg"><g clip-path="url(#a)" stroke="#fff" stroke-width="2.5" stroke-linecap="round" stroke-linejoin="round"><path d="M18.003 40.448a3.04 3.04 0 0 0 3.033-3.048 3.04 3.04 0 0 0-3.033-3.048 3.04 3.04 0 0 0-3.032 3.048 3.04 3.04 0 0 0 3.032 3.048Z" fill="#529ADD"/><path d="M26.81 20.341c0-5.228-4.508-9.395-9.828-8.798-3.98.447-7.222 3.654-7.724 7.645a8.863 8.863 0 0 0 1.86 6.676c1.424 1.785 2.588 3.041 2.966 5.415l.25 1.6h7.323l.21-1.339c.393-2.5 1.533-3.782 3.083-5.777a8.823 8.823 0 0 0 1.86-5.43v.008Z"/><path d="M21.296 30.505H14.71a1.72 1.72 0 0 0-1.718 1.722c0 .95.77 1.721 1.718 1.721h6.585a1.72 1.72 0 0 0 1.717-1.721 1.72 1.72 0 0 0-1.717-1.722ZM21.296 33.948H14.71a1.72 1.72 0 0 0-1.718 1.722c0 .95.77 1.722 1.718 1.722h6.585a1.72 1.72 0 0 0 1.717-1.722 1.72 1.72 0 0 0-1.717-1.722Z" fill="#529ADD"/><path d="M18.004 5.381V2.552M8.009 9.548 6.015 7.545M3.862 18.592H1.047M8.009 28.636l-1.994 2.003M27.999 28.636l1.994 2.003M32.138 18.592h2.815M27.999 9.548l1.994-2.003"/></g><defs><clipPath id="a"><path fill="#fff" transform="translate(0 .5)" d="M0 0h36v41H0z"/></clipPath></defs></svg>