<svg width="14" height="14" fill="none" xmlns="http://www.w3.org/2000/svg"><path fill-rule="evenodd" clip-rule="evenodd" d="M6.155 10.314c2.195 0 3.974-1.884 3.974-4.208 0-2.325-1.78-4.209-3.974-4.209-2.195 0-3.975 1.884-3.975 4.209 0 2.324 1.78 4.208 3.975 4.208Zm0 1.485c2.97 0 5.377-2.549 5.377-5.693 0-3.145-2.407-5.694-5.377-5.694C3.185.412.777 2.96.777 6.106c0 3.144 2.408 5.693 5.378 5.693Z" fill="#378FD7" stroke="#378FD7" stroke-width=".3"/><path fill-rule="evenodd" clip-rule="evenodd" d="M9.187 9.316a.608.608 0 0 1 .895 0l2.955 3.129a.698.698 0 0 1 0 .947.608.608 0 0 1-.895 0l-2.955-3.128a.698.698 0 0 1 0-.948Z" fill="#378FD7" stroke="#378FD7" stroke-width=".3" stroke-linecap="round"/></svg>