
<svg width="22" height="21" fill="none" xmlns="http://www.w3.org/2000/svg"><path fill-rule="evenodd" clip-rule="evenodd" d="M1.966 5.735c.294 0 .532.232.532.515a.523.523 0 0 1-.532.512.523.523 0 0 1-.532-.512c0-.283.235-.515.532-.515Zm15.085.09v.849H4.949v-.849h12.103-.001Zm-.944 5.318H5.893v8.507h9.978a.24.24 0 0 0 .167-.066.235.235 0 0 0 .069-.16v-8.281ZM5.893 1.348v3.111h10.214V1.348H5.893Zm-.881 3.111V1.157a.64.64 0 0 1 .198-.46L5.215.69A.69.69 0 0 1 5.695.5h10.609c.189 0 .362.075.483.193.123.118.2.283.2.465V4.46h2.95a2.09 2.09 0 0 1 1.456.584c.374.36.607.858.607 1.401v6.775a1.94 1.94 0 0 1-.607 1.4c-.376.36-.89.585-1.456.585h-2.95v4.22c0 .296-.125.565-.326.76a1.148 1.148 0 0 1-.791.315H5.695a.696.696 0 0 1-.483-.19.65.65 0 0 1-.2-.466v-4.639h-2.95a2.097 2.097 0 0 1-1.457-.584h.002A1.942 1.942 0 0 1 0 13.22V6.445c0-.545.23-1.042.605-1.4.373-.362.89-.585 1.458-.585h2.95l-.001-.001Zm2.391 13.087h7.193v.85H7.403v-.85Zm0-2.556h7.193v.851H7.403v-.85Zm0-2.556h7.193v.85H7.403v-.85Z" fill="#434859"/></svg>