<svg width="71" height="70" viewBox="0 0 71 70" fill="none" xmlns="http://www.w3.org/2000/svg">
<path d="M20.5576 62C17.7962 62 15.5576 59.7614 15.5576 57L15.5576 53.0254L8.3252 44.8486C7.68484 44.1247 8.3417 43.0038 9.28613 43.209L15.5576 44.5732L15.5576 41.0801C15.5576 38.3187 17.7962 36.0801 20.5576 36.0801L63.6318 36.0801C66.3933 36.0801 68.6318 38.3187 68.6318 41.0801L68.6318 57C68.6318 59.7614 66.3933 62 63.6318 62L20.5576 62Z" fill="#4CC2A6"/>
<path d="M58.7578 44.4116L25.4321 44.4116" stroke="white" stroke-width="2" stroke-linecap="round"/>
<path d="M58.7578 52.7429L34.6892 52.7429" stroke="white" stroke-width="2" stroke-linecap="round"/>
<path d="M51.0762 8C53.8376 8 56.0762 10.2386 56.0762 13V16.9746L63.3096 25.1514C63.9494 25.8754 63.292 26.9963 62.3477 26.791L56.0762 25.4268V28.9199C56.0762 31.6813 53.8376 33.9199 51.0762 33.9199L8.00195 33.9199C5.24053 33.9199 3.00195 31.6813 3.00195 28.9199L3.00195 13C3.00195 10.2386 5.24053 8 8.00195 8L51.0762 8Z" fill="#4EA1E4"/>
<path d="M12.1641 16.3315L45.4898 16.3315" stroke="white" stroke-width="2" stroke-linecap="round"/>
<path d="M12.1641 24.6628L36.2326 24.6628" stroke="white" stroke-width="2" stroke-linecap="round"/>
</svg>
