<svg width="71" height="70" viewBox="0 0 71 70" fill="none" xmlns="http://www.w3.org/2000/svg">
<path opacity="0.95" d="M63.4584 59.6253H64.8464C65.5397 59.6017 66.0014 59.0102 65.9999 58.3715L65.9261 23.6442C65.9261 22.3771 65.55 21.4006 64.808 20.7265C63.8861 19.8887 62.7503 19.9153 62.4347 19.9153H31.6266C31.277 19.9153 31.1369 19.781 31.0867 19.7161C31.0749 19.6748 31.0793 19.691 31.0439 19.6261L27.3548 12.6978C26.6542 11.3201 25.3399 11 24.6923 11H16.1798C13.8772 11 12.8904 12.894 12.7975 14.1773C12.796 14.2053 12.7842 14.2171 12.7842 14.2451V58.932C12.7842 58.932 13.7459 59.5929 15.0956 59.5929L63.4613 59.6253H63.4584Z" fill="#118C6E"/>
<path opacity="0.95" d="M15.0946 59.5928C13.7745 59.5928 11.4542 58.8819 11.0987 56.1928L6.08055 23.7577C6.0127 23.4141 5.74129 21.6986 6.81513 20.3636C7.31812 19.7382 8.31084 19.0081 10.1635 19.0081H21.0612C22.8549 19.0081 23.8344 20.2191 24.1618 21.0068L27.6326 27.4837C27.668 27.5501 27.6725 27.5575 27.6902 27.6165C27.7462 27.7198 27.9085 27.9233 28.3259 27.9233H57.0542C59.842 27.9233 61.0029 30.1182 61.2271 31.2879L65.9311 58.1222C65.9606 58.224 65.9768 58.3449 65.9768 58.457C65.9768 59.0957 65.459 59.6253 64.8203 59.6253H64.8144L15.0961 59.5928H15.0946Z" fill="#1EB792"/>
</svg>
