<svg width="70" height="70" viewBox="0 0 70 70" fill="none" xmlns="http://www.w3.org/2000/svg">
<path d="M60.7412 23.7273H47.9846C47.2898 23.7273 46.7266 24.2348 46.7266 24.8609V66.2301C46.7266 66.8561 47.2898 67.3637 47.9846 67.3637H61.9993V24.8609C61.9993 24.2348 61.436 23.7273 60.7412 23.7273Z" fill="#1DB591"/>
<path d="M55.6133 18.2727C55.6133 17.5823 55.0536 17.0227 54.3633 17.0227C53.6729 17.0227 53.1133 17.5823 53.1133 18.2727H55.6133ZM54.3633 18.2727H53.1133V23.7273H54.3633H55.6133V18.2727H54.3633Z" fill="#2C9CCC"/>
<path d="M35.8186 12.8181H8.5459V67.3636H35.8186V12.8181Z" fill="#4EA1E4"/>
<path d="M36.3636 7.36353H8V12.8181H36.3636V7.36353Z" fill="white"/>
<path d="M29.9996 3H14.3633C13.2587 3 12.3633 3.89543 12.3633 5V7.36364H31.9996V5C31.9996 3.89543 31.1042 3 29.9996 3Z" fill="#1DB591"/>
<path d="M18.0483 30.1812H15.0908V33.1387H18.0483V30.1812Z" fill="white"/>
<path d="M23.81 30.1812H20.8525V33.1387H23.81V30.1812Z" fill="white"/>
<path d="M18.0483 35.8821H15.0908V38.8396H18.0483V35.8821Z" fill="white"/>
<path d="M23.81 35.8821H20.8525V38.8396H23.81V35.8821Z" fill="white"/>
<path d="M18.0483 41.3567H15.0908V44.3142H18.0483V41.3567Z" fill="white"/>
<path d="M23.81 41.3567H20.8525V44.3142H23.81V41.3567Z" fill="white"/>
<path d="M18.0483 46.8198H15.0908V49.7773H18.0483V46.8198Z" fill="white"/>
<path d="M23.81 46.8198H20.8525V49.7773H23.81V46.8198Z" fill="white"/>
<path d="M29.7202 30.1812H26.7627V33.1387H29.7202V30.1812Z" fill="white"/>
<path d="M29.7202 35.8821H26.7627V38.8396H29.7202V35.8821Z" fill="white"/>
<path d="M18.0483 18.9272H15.0908V21.8847H18.0483V18.9272Z" fill="white"/>
<path d="M23.81 18.9272H20.8525V21.8847H23.81V18.9272Z" fill="white"/>
<path d="M18.0483 24.6274H15.0908V27.5849H18.0483V24.6274Z" fill="white"/>
<path d="M23.81 24.6274H20.8525V27.5849H23.81V24.6274Z" fill="white"/>
<path d="M29.7202 18.9272H26.7627V21.8847H29.7202V18.9272Z" fill="white"/>
<path d="M29.7202 24.6274H26.7627V27.5849H29.7202V24.6274Z" fill="white"/>
<path d="M29.7202 41.3567H26.7627V44.3142H29.7202V41.3567Z" fill="white"/>
<path d="M29.7202 46.8198H26.7627V49.7773H29.7202V46.8198Z" fill="white"/>
<path d="M18.0483 52.5261H15.0908V55.4836H18.0483V52.5261Z" fill="white"/>
<path d="M23.81 52.5261H20.8525V55.4836H23.81V52.5261Z" fill="white"/>
<path d="M18.0483 58.0012H15.0908V60.9587H18.0483V58.0012Z" fill="white"/>
<path d="M23.81 58.0012H20.8525V60.9587H23.81V58.0012Z" fill="white"/>
<path d="M29.7202 52.5261H26.7627V55.4836H29.7202V52.5261Z" fill="white"/>
<path d="M29.7202 58.0012H26.7627V60.9587H29.7202V58.0012Z" fill="white"/>
<path d="M53.2719 36.8181H35.8174V67.3636H53.2719V36.8181Z" fill="white"/>
<path d="M51.2719 31.3635H35.8174V36.8181H53.2719V33.3635C53.2719 32.259 52.3765 31.3635 51.2719 31.3635Z" fill="#D6E8F5"/>
<path d="M41.3175 49.8794H39.2969V51.9H41.3175V49.8794Z" fill="#27A4CB"/>
<path d="M45.2511 49.8794H43.2305V51.9H45.2511V49.8794Z" fill="#27A4CB"/>
<path d="M41.3175 53.7739H39.2969V55.7945H41.3175V53.7739Z" fill="#27A4CB"/>
<path d="M45.2511 53.7739H43.2305V55.7945H45.2511V53.7739Z" fill="#27A4CB"/>
<path d="M41.3175 57.5107H39.2969V59.5313H41.3175V57.5107Z" fill="#27A4CB"/>
<path d="M45.2511 57.5107H43.2305V59.5313H45.2511V57.5107Z" fill="#27A4CB"/>
<path d="M41.3175 61.2415H39.2969V63.262H41.3175V61.2415Z" fill="#27A4CB"/>
<path d="M45.2511 61.2415H43.2305V63.262H45.2511V61.2415Z" fill="#27A4CB"/>
<path d="M49.2911 49.8794H47.2705V51.9H49.2911V49.8794Z" fill="#27A4CB"/>
<path d="M49.2911 53.7739H47.2705V55.7945H49.2911V53.7739Z" fill="#27A4CB"/>
<path d="M41.3175 42.1924H39.2969V44.213H41.3175V42.1924Z" fill="#27A4CB"/>
<path d="M45.2511 42.1924H43.2305V44.213H45.2511V42.1924Z" fill="#27A4CB"/>
<path d="M41.3175 46.0869H39.2969V48.1075H41.3175V46.0869Z" fill="#27A4CB"/>
<path d="M45.2511 46.0869H43.2305V48.1075H45.2511V46.0869Z" fill="#27A4CB"/>
<path d="M49.2911 42.1924H47.2705V44.213H49.2911V42.1924Z" fill="#27A4CB"/>
<path d="M49.2911 46.0869H47.2705V48.1075H49.2911V46.0869Z" fill="#27A4CB"/>
<path d="M49.2911 57.5107H47.2705V59.5313H49.2911V57.5107Z" fill="#27A4CB"/>
<path d="M49.2911 61.2415H47.2705V63.262H49.2911V61.2415Z" fill="#27A4CB"/>
</svg>
