
<svg width="34" height="29" fill="none" xmlns="http://www.w3.org/2000/svg"><g opacity=".8" stroke="#808698" stroke-width="2"><path d="m7.944 14.797 4.15 3.864a4.04 4.04 0 0 0 1.357.837c.497.187 1.02.284 1.549.284.53 0 1.052-.09 1.55-.284.497-.187.955-.47 1.356-.837l4.15-3.864 4.15-3.864L29 8.333v-.45s-.008-.067-.008-.104a2.624 2.624 0 0 0-.891-1.868 2.854 2.854 0 0 0-.923-.561 3.082 3.082 0 0 0-1.124-.21H3.946a3.082 3.082 0 0 0-2.047.77c-.265.24-.482.524-.634.838a2.492 2.492 0 0 0-.257 1.031c0 .037-.008.067-.008.105v.448l2.794 2.601 4.15 3.864Z" stroke-linecap="round" stroke-linejoin="round"/><path d="m2 26.14 9-8M28 26.14l-9-8"/><path d="M1 8.332v16.816c0 1.517 1.317 2.743 2.946 2.743h22.108c1.63 0 2.946-1.226 2.946-2.743V8.332" stroke-linecap="round" stroke-linejoin="round"/><circle cx="26" cy="8.141" r="7" fill="#F6F8FB"/><path d="M23 8.14h6M26.5 5.64l2.5 2.5-2.5 2.5" stroke-linecap="round" stroke-linejoin="round"/></g></svg>