<svg width="55" height="69" fill="none" xmlns="http://www.w3.org/2000/svg"><path stroke="#1A6894" stroke-width="3" d="m38.061 38.939 10.606 10.607"/><rect x="49.02" y="40.707" width="26" height="13" rx="3" transform="rotate(45 49.02 40.707)" fill="#B6E3FD"/><circle cx="24" cy="24" r="24" fill="#4EA1E4"/><circle cx="24" cy="24" r="17" fill="#EEF7FF"/><mask id="a" style="mask-type:alpha" maskUnits="userSpaceOnUse" x="7" y="7" width="34" height="34"><circle cx="24" cy="24" r="17" fill="#4EA1E4"/></mask><g mask="url(#a)" fill="#9CC6E8"><path d="M31.2 21.2a7.2 7.2 0 1 1-14.4 0 7.2 7.2 0 0 1 14.4 0Z"/><path d="M12 38.148a9.6 9.6 0 0 1 9.6-9.6h4.8a9.6 9.6 0 0 1 9.6 9.6v4.8H12v-4.8Z"/></g></svg>