<svg width="48" height="51" fill="none" xmlns="http://www.w3.org/2000/svg"><circle cx="24" cy="24" r="20.5" fill="#E8F8F4" stroke="#55CBAF" stroke-width="7"/><mask id="a" style="mask-type:alpha" maskUnits="userSpaceOnUse" x="7" y="7" width="34" height="34"><circle cx="24" cy="24" r="17" fill="#E8F8F4"/></mask><g mask="url(#a)"><path fill="#E8F8F4" d="M-1-11h50v54H-1z"/><path d="M31.2 21.2a7.2 7.2 0 1 1-14.4 0 7.2 7.2 0 0 1 14.4 0Z" fill="#1EB793"/><path d="M12 38.148a9.6 9.6 0 0 1 9.6-9.6h4.8a9.6 9.6 0 0 1 9.6 9.6v4.8H12v-4.8Z" fill="#1EB793"/></g><circle cx="11" cy="41" r="10" fill="#FF7053"/><path d="M7.25 41h7.5M11 44.75v-7.5" stroke="#fff" stroke-width="2" stroke-linecap="round"/></svg>