<svg width="121" height="51" viewBox="0 0 121 51" fill="none" xmlns="http://www.w3.org/2000/svg">
<path d="M1.80469 33V0.988281H10.4844V13.9219H10.9141L20.5391 0.988281H30.6797L19.8516 15.2539L30.9375 33H20.5391L13.3633 21.0117L10.4844 24.75V33H1.80469ZM40.5195 33H31.1523L41.7227 0.988281H53.582L64.1523 33H54.7852L47.7812 9.79688H47.5234L40.5195 33ZM38.8008 20.3672H56.418V26.8555H38.8008V20.3672ZM66.1719 33V0.988281H79.9648C82.3424 0.988281 84.4193 1.46094 86.1953 2.40625C87.9857 3.33724 89.375 4.65495 90.3633 6.35938C91.3659 8.0638 91.8672 10.0547 91.8672 12.332C91.8672 14.6237 91.3587 16.6074 90.3418 18.2832C89.3249 19.9447 87.8997 21.2337 86.0664 22.1504C84.2331 23.0527 82.099 23.5039 79.6641 23.5039H71.4141V16.7578H77.9023C78.9336 16.7578 79.8145 16.5788 80.5449 16.2207C81.2754 15.8483 81.834 15.3327 82.2207 14.6738C82.6074 14.015 82.8008 13.2344 82.8008 12.332C82.8008 11.401 82.6074 10.6133 82.2207 9.96875C81.834 9.3099 81.2754 8.80859 80.5449 8.46484C79.8145 8.12109 78.9336 7.94922 77.9023 7.94922H74.8516V33H66.1719ZM107.035 33.3867C104.257 33.3867 101.829 32.9785 99.752 32.1621C97.6895 31.3314 96.0853 30.0566 94.9395 28.3379C93.7936 26.6191 93.2135 24.4206 93.1992 21.7422H101.449C101.507 22.7161 101.75 23.5397 102.18 24.2129C102.624 24.8861 103.24 25.3945 104.027 25.7383C104.829 26.082 105.789 26.2539 106.906 26.2539C107.837 26.2539 108.618 26.1393 109.248 25.9102C109.878 25.681 110.351 25.3659 110.666 24.9648C110.995 24.5495 111.16 24.0768 111.16 23.5469C111.16 23.0599 111.003 22.6374 110.688 22.2793C110.387 21.9069 109.885 21.5703 109.184 21.2695C108.482 20.9688 107.536 20.6966 106.348 20.4531L103.125 19.7656C100.303 19.1641 98.0762 18.14 96.4434 16.6934C94.8249 15.2324 94.0156 13.2487 94.0156 10.7422C94.0156 8.70833 94.5671 6.93229 95.6699 5.41406C96.7728 3.88151 98.291 2.69271 100.225 1.84766C102.173 0.988281 104.414 0.558594 106.949 0.558594C109.542 0.558594 111.776 0.995443 113.652 1.86914C115.543 2.72852 116.997 3.94596 118.014 5.52148C119.045 7.08268 119.568 8.90885 119.582 11H111.246C111.174 9.95443 110.788 9.14518 110.086 8.57227C109.398 7.98503 108.353 7.69141 106.949 7.69141C106.061 7.69141 105.331 7.79883 104.758 8.01367C104.185 8.21419 103.762 8.50065 103.49 8.87305C103.218 9.24544 103.082 9.66797 103.082 10.1406C103.082 10.6419 103.225 11.0859 103.512 11.4727C103.812 11.8451 104.278 12.1745 104.908 12.4609C105.553 12.7331 106.376 12.9766 107.379 13.1914L110 13.75C111.762 14.1224 113.273 14.6165 114.533 15.2324C115.808 15.8483 116.846 16.5716 117.648 17.4023C118.465 18.2188 119.059 19.1426 119.432 20.1738C119.818 21.2051 120.012 22.3294 120.012 23.5469C120.012 25.6523 119.489 27.4427 118.443 28.918C117.412 30.3789 115.93 31.4889 113.996 32.248C112.062 33.0072 109.742 33.3867 107.035 33.3867Z" fill="#24394A"/>
<path d="M12.2037 40.868C12.7717 40.868 13.2717 40.976 13.7037 41.192C14.1437 41.4 14.4877 41.696 14.7357 42.08C14.9837 42.464 15.1077 42.912 15.1077 43.424C15.1077 43.928 14.9837 44.376 14.7357 44.768C14.4877 45.152 14.1437 45.452 13.7037 45.668C13.2717 45.876 12.7717 45.98 12.2037 45.98C11.6437 45.98 11.1437 45.876 10.7037 45.668C10.2637 45.452 9.91566 45.152 9.65966 44.768C9.41166 44.376 9.28766 43.928 9.28766 43.424C9.28766 42.912 9.41166 42.464 9.65966 42.08C9.91566 41.696 10.2637 41.4 10.7037 41.192C11.1437 40.976 11.6437 40.868 12.2037 40.868ZM12.2037 41.732C11.8357 41.732 11.5037 41.804 11.2077 41.948C10.9197 42.084 10.6917 42.28 10.5237 42.536C10.3557 42.792 10.2717 43.088 10.2717 43.424C10.2717 43.76 10.3557 44.056 10.5237 44.312C10.6917 44.568 10.9197 44.768 11.2077 44.912C11.5037 45.048 11.8357 45.116 12.2037 45.116C12.5797 45.116 12.9117 45.048 13.1997 44.912C13.4877 44.768 13.7157 44.568 13.8837 44.312C14.0517 44.056 14.1357 43.76 14.1357 43.424C14.1357 43.088 14.0517 42.792 13.8837 42.536C13.7157 42.28 13.4877 42.084 13.1997 41.948C12.9117 41.804 12.5797 41.732 12.2037 41.732ZM16.5357 40.076H17.5317V50.948H16.5357V40.076ZM8.87966 48.572L8.74766 47.732C9.41166 47.732 10.1397 47.728 10.9317 47.72C11.7237 47.704 12.5397 47.672 13.3797 47.624C14.2277 47.568 15.0437 47.48 15.8277 47.36L15.9117 48.092C15.0957 48.244 14.2677 48.356 13.4277 48.428C12.5957 48.492 11.7917 48.532 11.0157 48.548C10.2397 48.564 9.52766 48.572 8.87966 48.572ZM26.9706 41.012H27.7866V42.956C27.7866 43.556 27.7106 44.144 27.5586 44.72C27.4146 45.296 27.2066 45.836 26.9346 46.34C26.6626 46.844 26.3426 47.292 25.9746 47.684C25.6066 48.076 25.2066 48.388 24.7746 48.62L24.1626 47.816C24.5626 47.616 24.9306 47.348 25.2666 47.012C25.6106 46.668 25.9106 46.276 26.1666 45.836C26.4226 45.396 26.6186 44.932 26.7546 44.444C26.8986 43.948 26.9706 43.452 26.9706 42.956V41.012ZM27.1506 41.012H27.9546V42.956C27.9546 43.436 28.0226 43.912 28.1586 44.384C28.3026 44.856 28.5026 45.3 28.7586 45.716C29.0146 46.132 29.3066 46.504 29.6346 46.832C29.9706 47.16 30.3306 47.42 30.7146 47.612L30.1026 48.404C29.6786 48.188 29.2866 47.892 28.9266 47.516C28.5746 47.14 28.2626 46.712 27.9906 46.232C27.7266 45.744 27.5186 45.224 27.3666 44.672C27.2226 44.112 27.1506 43.54 27.1506 42.956V41.012ZM31.6626 40.076H32.6586V50.936H31.6626V40.076ZM32.4306 44.468H34.4346V45.32H32.4306V44.468ZM40.4415 41.264H45.3375V42.08H40.4415V41.264ZM42.1335 44.372H43.1175V48.044H42.1335V44.372ZM44.9295 41.264H45.9135V41.852C45.9135 42.292 45.8975 42.868 45.8655 43.58C45.8415 44.292 45.7535 45.152 45.6015 46.16L44.6175 46.076C44.7775 45.092 44.8695 44.252 44.8935 43.556C44.9175 42.86 44.9295 42.292 44.9295 41.852V41.264ZM47.2695 40.076H48.2655V50.936H47.2695V40.076ZM47.9895 44.612H49.9935V45.464H47.9895V44.612ZM39.9615 48.56L39.8415 47.732C40.4895 47.724 41.1975 47.716 41.9655 47.708C42.7415 47.692 43.5255 47.66 44.3175 47.612C45.1175 47.564 45.8815 47.496 46.6095 47.408L46.6695 48.152C45.9175 48.272 45.1455 48.36 44.3535 48.416C43.5695 48.472 42.8015 48.512 42.0495 48.536C41.2975 48.552 40.6015 48.56 39.9615 48.56ZM55.6045 41.228H62.0125V42.032H55.6045V41.228ZM58.8085 42.596C59.3205 42.596 59.7725 42.676 60.1645 42.836C60.5565 42.996 60.8605 43.224 61.0765 43.52C61.2925 43.808 61.4005 44.152 61.4005 44.552C61.4005 44.952 61.2925 45.296 61.0765 45.584C60.8605 45.872 60.5565 46.1 60.1645 46.268C59.7725 46.428 59.3205 46.508 58.8085 46.508C58.2965 46.508 57.8445 46.428 57.4525 46.268C57.0605 46.1 56.7525 45.872 56.5285 45.584C56.3125 45.296 56.2045 44.952 56.2045 44.552C56.2045 44.152 56.3125 43.808 56.5285 43.52C56.7525 43.224 57.0605 42.996 57.4525 42.836C57.8445 42.676 58.2965 42.596 58.8085 42.596ZM58.8085 43.364C58.3125 43.364 57.9125 43.472 57.6085 43.688C57.3125 43.896 57.1645 44.184 57.1645 44.552C57.1645 44.912 57.3125 45.2 57.6085 45.416C57.9125 45.624 58.3125 45.728 58.8085 45.728C59.2965 45.728 59.6925 45.624 59.9965 45.416C60.3005 45.2 60.4525 44.912 60.4525 44.552C60.4525 44.184 60.3005 43.896 59.9965 43.688C59.7005 43.472 59.3045 43.364 58.8085 43.364ZM63.0085 40.076H64.0045V46.868H63.0085V40.076ZM63.7285 43.076H65.6005V43.904H63.7285V43.076ZM56.9485 47.456H64.0045V50.936H63.0085V48.272H56.9485V47.456ZM58.3165 40.028H59.3125V41.672H58.3165V40.028ZM73.8874 41.636H74.6914V43.388C74.6914 43.956 74.6114 44.52 74.4514 45.08C74.2914 45.632 74.0674 46.156 73.7794 46.652C73.4994 47.14 73.1754 47.576 72.8074 47.96C72.4394 48.336 72.0434 48.632 71.6194 48.848L71.0314 48.056C71.4234 47.864 71.7874 47.604 72.1234 47.276C72.4674 46.94 72.7714 46.56 73.0354 46.136C73.2994 45.704 73.5074 45.256 73.6594 44.792C73.8114 44.32 73.8874 43.852 73.8874 43.388V41.636ZM74.0794 41.636H74.8714V43.388C74.8714 43.82 74.9394 44.256 75.0754 44.696C75.2194 45.136 75.4194 45.556 75.6754 45.956C75.9314 46.356 76.2274 46.716 76.5634 47.036C76.9074 47.348 77.2714 47.6 77.6554 47.792L77.0914 48.584C76.6674 48.368 76.2714 48.08 75.9034 47.72C75.5354 47.352 75.2154 46.936 74.9434 46.472C74.6714 46.008 74.4594 45.512 74.3074 44.984C74.1554 44.456 74.0794 43.924 74.0794 43.388V41.636ZM71.4154 41.192H77.2714V42.02H71.4154V41.192ZM78.5554 40.076H79.5514V50.936H78.5554V40.076ZM79.3234 44.456H81.3274V45.296H79.3234V44.456ZM92.9383 42.608H95.1583V43.424H92.9383V42.608ZM92.9263 44.72H95.1343V45.536H92.9263V44.72ZM86.8543 41.168H92.9383V41.972H86.8543V41.168ZM89.9263 42.5C90.4143 42.5 90.8423 42.584 91.2103 42.752C91.5783 42.912 91.8663 43.14 92.0743 43.436C92.2823 43.724 92.3863 44.064 92.3863 44.456C92.3863 44.848 92.2823 45.192 92.0743 45.488C91.8663 45.776 91.5783 46 91.2103 46.16C90.8423 46.32 90.4143 46.4 89.9263 46.4C89.4463 46.4 89.0223 46.32 88.6543 46.16C88.2863 46 87.9983 45.776 87.7903 45.488C87.5823 45.192 87.4783 44.848 87.4783 44.456C87.4783 44.064 87.5823 43.724 87.7903 43.436C87.9983 43.14 88.2863 42.912 88.6543 42.752C89.0223 42.584 89.4463 42.5 89.9263 42.5ZM89.9263 43.268C89.4703 43.268 89.1023 43.376 88.8223 43.592C88.5503 43.808 88.4143 44.096 88.4143 44.456C88.4143 44.816 88.5503 45.108 88.8223 45.332C89.1023 45.548 89.4703 45.656 89.9263 45.656C90.3823 45.656 90.7503 45.548 91.0303 45.332C91.3183 45.108 91.4623 44.816 91.4623 44.456C91.4623 44.096 91.3183 43.808 91.0303 43.592C90.7503 43.376 90.3823 43.268 89.9263 43.268ZM89.4463 39.98H90.4303V41.66H89.4463V39.98ZM94.7743 40.076H95.7703V46.496H94.7743V40.076ZM88.7503 46.964H89.7343V48.08H94.7863V46.964H95.7703V50.792H88.7503V46.964ZM89.7343 48.848V50H94.7863V48.848H89.7343ZM105.569 46.592H106.565V48.38H105.569V46.592ZM110.321 40.076H111.317V50.936H110.321V40.076ZM102.677 48.872L102.533 48.032C103.221 48.024 103.965 48.016 104.765 48.008C105.565 48 106.381 47.972 107.213 47.924C108.045 47.876 108.849 47.8 109.625 47.696L109.697 48.44C108.897 48.568 108.085 48.664 107.261 48.728C106.437 48.784 105.633 48.824 104.849 48.848C104.065 48.864 103.341 48.872 102.677 48.872ZM102.761 41.408H109.349V42.212H102.761V41.408ZM106.049 42.824C106.569 42.824 107.025 42.908 107.417 43.076C107.809 43.244 108.113 43.48 108.329 43.784C108.553 44.08 108.665 44.432 108.665 44.84C108.665 45.24 108.553 45.592 108.329 45.896C108.113 46.2 107.809 46.436 107.417 46.604C107.025 46.764 106.569 46.844 106.049 46.844C105.537 46.844 105.085 46.764 104.693 46.604C104.301 46.436 103.997 46.2 103.781 45.896C103.565 45.592 103.457 45.24 103.457 44.84C103.457 44.432 103.565 44.08 103.781 43.784C103.997 43.48 104.301 43.244 104.693 43.076C105.085 42.908 105.537 42.824 106.049 42.824ZM106.049 43.604C105.569 43.604 105.173 43.716 104.861 43.94C104.549 44.164 104.393 44.464 104.393 44.84C104.393 45.208 104.549 45.504 104.861 45.728C105.173 45.952 105.569 46.064 106.049 46.064C106.545 46.064 106.945 45.952 107.249 45.728C107.561 45.504 107.717 45.208 107.717 44.84C107.717 44.464 107.561 44.164 107.249 43.94C106.945 43.716 106.545 43.604 106.049 43.604ZM105.569 40.088H106.565V41.84H105.569V40.088Z" fill="#24394A"/>
</svg>
