<svg width="24" height="24" fill="none" xmlns="http://www.w3.org/2000/svg"><path d="M14 19.778H3a2 2 0 0 1-2-2V6.388a1 1 0 0 1 .263-.675l3.104-3.388A1 1 0 0 1 5.104 2h10.384a2 2 0 0 1 2 2v5.244" stroke="#525A6B" stroke-width="1.5" stroke-linecap="round"/><path d="M1 7h3.5a1 1 0 0 0 1-1V2" stroke="#525A6B" stroke-width="1.5"/><path d="M19.316 15.62V11a1 1 0 0 0-1-1h-3.448a1 1 0 0 0-1 1v4.62H10.5l5.354 5.761a1 1 0 0 0 1.47-.005l5.276-5.755h-3.285Z" stroke="#525A6B" stroke-width="1.5" stroke-linecap="round" stroke-linejoin="round"/></svg>